<?xml version="1.0" encoding="utf-8"?>
<!-- Generator: Adobe Illustrator 22.1.0, SVG Export Plug-In . SVG Version: 6.00 Build 0)  -->
<svg version="1.1" id="Layer_1" xmlns="http://www.w3.org/2000/svg" xmlns:xlink="http://www.w3.org/1999/xlink" x="0px" y="0px"
	 viewBox="0 0 642 643" style="enable-background:new 0 0 642 643;" xml:space="preserve">
<g>
	<path d="M9,540c0-146,0-292,0-438c0.6-2.2,1.2-4.4,1.8-6.7c9.9-42.8,36-70.6,77.8-83.7c4.7-1.5,9.6-2.4,14.4-3.6c146,0,292,0,438,0
		c1.2,0.4,2.5,0.9,3.7,1.1c45,9.5,74,36.3,87.1,80.4c1.2,4.1,2.1,8.3,3.1,12.5c0,146,0,292,0,438c-0.4,1.6-1,3.1-1.3,4.7
		c-9.8,44.3-36.3,73-79.7,86c-4.3,1.3-8.7,2.2-13,3.2c-40.3,0-80.7,0-121,0c-0.2-1.8-0.4-3.6-0.4-5.4c0-74.8,0-149.6,0-224.5
		c0-2,0-3.9,0-6.5c2.5,0,4.5,0,6.4,0c30.7,0,61.3-0.1,92,0.1c4.4,0,6-1,6-5.7c-0.2-31-0.1-62-0.1-93c0-1.8-0.1-3.5-0.3-6
		c-34.8,0-69.2,0-103.5,0c0-16.1-0.7-31.7,0.2-47.1c0.9-14.7,10.2-22.3,24.8-22.3c24,0,48,0,72,0c2.1,0,4.2-0.2,6.4-0.3
		c0-34.9,0-69.2,0-104.1c-2,0-3.7,0-5.3,0c-25.5,0-51,0-76.5,0c-22.7,0-43.3,6.4-61.8,19.5c-31.6,22.4-49.9,53.4-55.6,91.1
		c-2.8,18.8-1.6,38.2-2.2,57.3c-0.1,1.9,0,3.8,0,6.2c-25.9,0-51,0-76.2,0c-0.2,1.6-0.4,2.8-0.4,3.9c0,31.8,0.1,63.7-0.1,95.5
		c0,4.3,1.8,4.8,5.4,4.8c21.7-0.1,43.3-0.1,65-0.1c2,0,3.9,0,6.4,0c0,79.2,0,157.8,0,236.4c-73,0-146,0-219,0
		c-1.4-0.4-2.8-0.9-4.2-1.2c-44.5-9.6-73.4-36.2-86.5-79.8C11,548.7,10.1,544.3,9,540z"/>
</g>
</svg>
