<?xml version="1.0" encoding="utf-8"?>
<!-- Generator: Adobe Illustrator 22.1.0, SVG Export Plug-In . SVG Version: 6.00 Build 0)  -->
<svg version="1.1" id="linkedin_1" xmlns="http://www.w3.org/2000/svg" xmlns:xlink="http://www.w3.org/1999/xlink" x="0px" y="0px"
	 viewBox="0 0 642 643" style="enable-background:new 0 0 642 643;" xml:space="preserve" width="100%" height="100%">
<path d="M631.9,89.5c-13.1-44.1-42.2-70.8-87.1-80.4c-1.3-0.3-2.5-0.7-3.7-1.1C395,8,249,8,103,8c-4.8,1.2-9.7,2.1-14.4,3.6
	C46.8,24.8,20.7,52.6,10.8,95.3c-0.5,2.2-1.2,4.5-1.8,6.7c0,146,0,292,0,438c1.1,4.3,2,8.7,3.2,13c13.1,43.6,42,70.2,86.5,79.8
	c1.4,0.3,2.8,0.8,4.2,1.2c73,0,146,0,219,0c32.7,0,65.3,0,98,0c40.3,0,80.7,0,121,0c4.3-1.1,8.7-1.9,13-3.2
	c43.4-13.1,70-41.8,79.7-86c0.4-1.6,0.9-3.1,1.3-4.7c0-146,0-292,0-438C634,97.8,633.1,93.6,631.9,89.5z M213.4,554.3
	c-0.5,0-1.2,0-1.9,0c-31.2,0-62.5,0-93.7,0c-1.9,0-2.3-0.6-2.3-2.4c0-51.8-0.1-103.7-0.2-155.5c-0.1-31-0.2-62.1-0.2-93.1
	c0-13.6,0-27.3-0.1-40.9c0-0.7,0-1.3,0-2.2c32.9,0,65.5,0,98.4,0C213.4,358.2,213.4,456.1,213.4,554.3z M204.3,204.3
	c-7.6,8.7-17.4,13.8-28.7,16c-13.2,2.5-26.2,2.1-38.4-3.7c-18.9-8.9-28.3-24.3-28.3-45.1c0-24,15.9-42.9,39.8-47.6
	c4.6-0.9,9.4-1.2,14.1-1.8c11.1,0.4,21.7,2.6,31.2,8.6c12.5,7.9,19.5,19.5,21.7,34C217.8,179.4,214.3,192.9,204.3,204.3z
	 M554.3,551.5c0,0.8,0,1.7,0,2.7c-33.1,0-66,0-99,0c0-0.9,0-1.8,0-2.6c0-53.3,0-106.6,0-159.9c0-11.5-1.1-23-4.8-34
	c-3.1-9.2-8-17.1-16.4-22.3c-7.5-4.6-15.9-6-24.6-5.8c-19.3,0.4-33,9.9-42.4,26.3c-5.2,9-7.3,18.7-7.3,29c0,55.5,0,111,0,166.5
	c0,0.9,0,1.7,0,2.8c-33.2,0-66.2,0-99.8,0c0-97.9,0-195.7,0-293.9c32.8,0,65.8,0,99.4,0c0,13.6,0,27,0,40.5c0.2,0.1,0.5,0.1,0.7,0.2
	c0.5-0.7,0.9-1.3,1.4-2c6.8-10.3,14.6-19.6,24.5-27.1c11.9-9,25.3-14.2,39.9-16.4c17.1-2.5,34.1-1.8,50.9,2.7
	c29.6,8,50.6,26.2,63.6,53.7c7,14.7,10.9,30.2,12.4,46.4c0.9,9.3,1.4,18.7,1.5,28C554.4,441.4,554.3,496.4,554.3,551.5z"/>
</svg>
