<svg id="Layer_1" data-name="Layer1" xmlns="http://www.w3.org/2000/svg" viewBox="0 0 325 325"><defs><style>.cls-1{fill:#277eec;}</style></defs><title>safari-pinned-tab</title><path class="cls-1" d="M255.86,74.92c-13.08.15-26.16,0-39.24.07-4.92,0-5.28.43-5.76,5.46-.41,4.21-.92,8.4-1.5,13.7-10.49-13.8-23.77-20.08-39.18-22.69a94.69,94.69,0,0,0-40.07,2.11c-28.83,7.54-49.16,25-59.41,53.25-7.94,21.87-8,44.29-1.92,66.53,5.89,21.48,18.41,38.29,38.07,49.35a94.22,94.22,0,0,0,56.37,11.59c17.41-1.71,33.18-8,44.64-22.27.48-.6,1-1.62,1.81-1.12a3.13,3.13,0,0,1,1,2.09c.64,4.48,1.39,9,1.73,13.48.26,3.46,1.58,4.94,5.2,4.9q19-.21,38,0c3.6,0,5-1.23,5-4.88q-.1-83.48,0-167C260.55,76,259.32,74.88,255.86,74.92Zm-93.37,134c-27.67,0-46.12-18.34-46.08-45.77,0-27.24,19.17-46.3,46.46-46.28s46.6,19.74,46.27,48.35C208.87,188.8,189.41,209.54,162.49,208.89Z"/></svg>