<svg id="Layer_1" data-name="Layer 1" xmlns="http://www.w3.org/2000/svg" xmlns:xlink="http://www.w3.org/1999/xlink" viewBox="0 0 891.44 119.15"><defs><style>.cls-1{fill:none;}.cls-2{clip-path:url(#clip-path);}.cls-3{fill:#277eec;}</style><clipPath id="clip-path"><rect class="cls-1" x="-2216.36" y="576.56" width="1944" height="1201" transform="translate(-2488.72 2354.13) rotate(180)"/></clipPath></defs><title>avatao_blog_logo</title><path class="cls-3" d="M55.24.72a49.42,49.42,0,0,0-20.93,1.1C19.24,5.76,8.62,14.88,3.26,29.64c-4.14,11.43-4.18,23.15-1,34.77,3.08,11.22,9.62,20,19.89,25.78a49.21,49.21,0,0,0,29.46,6.06c9.09-.9,17.33-4.18,23.32-11.64.25-.31.51-.84.95-.58a1.68,1.68,0,0,1,.49,1.09c.34,2.34.73,4.68.91,7,.13,1.81.82,2.58,2.71,2.56q9.95-.1,19.88,0c1.88,0,2.59-.64,2.59-2.55q-.06-43.62,0-87.23c0-1.83-.64-2.43-2.45-2.41-6.83.08-13.67,0-20.5,0-2.57,0-2.76.23-3,2.86-.21,2.2-.48,4.39-.79,7.15C70.23,5.36,63.29,2.08,55.24.72ZM27.15,48.61c0-14.23,10-24.19,24.27-24.18S75.77,34.74,75.6,49.69C75.46,62,65.29,72.86,51.23,72.53,36.76,72.52,27.13,62.94,27.15,48.61ZM292.23,10.9a28.22,28.22,0,0,0-11.09-8c-8-3.15-16.32-3.48-24.68-2-18,3.24-30.49,13.23-36.06,30.89a55.56,55.56,0,0,0,.51,35,41,41,0,0,0,23.45,25.54,51.09,51.09,0,0,0,22.44,4.09,37.13,37.13,0,0,0,22.58-8.2c1.62-1.29,2.73-3.08,4.6-4.64.47,3.23,1,6.09,1.26,9,.17,1.75,1,2.17,2.6,2.16,6.41-.06,12.83,0,19.24,0,3.08,0,3.08,0,3.09-3.19V46.11q0-20.51,0-41c0-1.46-.07-2.59-2.05-2.57-7.18.06-14.36,0-21.54,0-1.42,0-2,.57-2.07,2-.21,2.49-.57,5-.89,7.61C292.77,11.88,292.58,11.3,292.23,10.9ZM245,48.8c0-15.87,11.17-24.3,24.39-24.35C283.53,24.39,293.72,35,293.5,49.6a23.43,23.43,0,0,1-24.56,22.92C256.33,72.65,244.94,64.34,245,48.8ZM471.08,1.72a49.22,49.22,0,0,0-30.21,1.6c-13,4.74-21.95,13.72-26.5,26.89a56.2,56.2,0,0,0-2.14,28.06c2.15,12.8,7.95,23.45,19.11,30.63a48.45,48.45,0,0,0,28.48,7.51c10.53-.36,19.8-3.7,26.73-12.11a.65.65,0,0,1,.84-.26c.79,2.74.89,5.68,1.3,8.55a2.08,2.08,0,0,0,2.45,2.12c6.69,0,13.39-.06,20.08,0,1.87,0,2.42-.72,2.37-2.49-.1-3.35,0-6.69,0-10q0-38.4,0-76.79c0-2.8,0-2.83-2.77-2.84-6.7,0-13.39,0-20.09,0-1.9,0-2.72.5-2.84,2.54a31.84,31.84,0,0,1-1,7.22C481.7,6.23,477.51,3.45,471.08,1.72Zm-8.4,22.73c14.41.05,24.37,9.76,24.26,25.4-.09,12.23-10.27,22.87-24.38,22.71-14.42-.17-24-9.53-24-23.81S448.42,24.4,462.68,24.45ZM592.46,94.29c13.53-3.48,24-11,30.24-23.72,4.86-9.92,5.89-20.48,4.19-31.22-2.53-16-11.18-27.62-26-34.29C588.1-.72,574.68-1.4,561.23,2.26c-15.72,4.28-26.68,14.09-32,29.7a51.18,51.18,0,0,0-1.85,25.6c2.1,12.2,7.82,22.28,18.13,29.45,9.45,6.57,20.08,9.09,32.83,9A51.73,51.73,0,0,0,592.46,94.29ZM563.18,29.06c7.67-5.33,16.12-5.72,24.45-1.92,8.14,3.71,11.6,10.9,12.43,19.47a27.17,27.17,0,0,1-1.41,12.15c-2.5,6.78-7.25,11.2-14.25,12.91-6.68,1.63-13.38,1.5-19.47-2.08C557,64.91,554.22,57.36,554,48.3,554.31,40.73,556.49,33.71,563.18,29.06ZM163.05,64c-6.94-19.81-14.46-39.41-22.13-58.95-.71-1.81-1.61-2.57-3.65-2.54-8.16.12-16.32.05-24.48.05-3.42,0-3.41,0-2.07,3.14q18.68,43.77,37.33,87.56a3.16,3.16,0,0,0,3.28,2.27q12.45-.09,24.9,0a3.15,3.15,0,0,0,3.3-2.24Q198.34,49.12,217.22,5c.92-2.15.77-2.41-1.53-2.42-8.44,0-16.88,0-25.32,0a2.81,2.81,0,0,0-3.1,2.08c-5.74,15.05-11.83,30-17.32,45.12C168,55,166,60.28,163.85,66.07,163.45,65,163.23,64.52,163.05,64ZM338.63,2.92c-2.14,0-2.77.71-2.73,2.78q.17,8.69,0,17.37c0,2.05.73,2.67,2.69,2.61,3.56-.11,7.11,0,10.67,0,2.6,0,2.7.1,2.7,2.73,0,9.76-.11,19.52.05,29.29.1,6.47.36,13,2.42,19.21,3.12,9.41,9.18,15.8,18.88,18.44,5.75,1.57,11.6,1.43,17.44.91a49.48,49.48,0,0,0,13-2.95c2.84-1.06,2.89-1.09,2.06-4.09-.35-1.27-.71-2.55-1.06-3.83-1.28-4.63-2.58-9.27-3.84-13.91-.35-1.32-.78-1.9-2.3-1.13a20,20,0,0,1-10.19,1.76,8.57,8.57,0,0,1-8.1-5.59,15.62,15.62,0,0,1-1.18-6.12c0-10.74,0-21.48,0-32.22,0-1.9.59-2.57,2.52-2.54,6.2.09,12.41,0,18.62.06,1.82,0,2.44-.64,2.42-2.45-.08-5.85-.11-11.71,0-17.57,0-2.13-.68-2.76-2.77-2.74-10.18.09-20.36,0-30.54,0S348.88,3,338.63,2.92Z"/><path class="cls-3" d="M655,93.19V5.51h27q14.7,0,22.3,5.82t7.61,17.14A18.85,18.85,0,0,1,708,40.31a21.12,21.12,0,0,1-10.58,7.2A22.14,22.14,0,0,1,710.31,55a20.48,20.48,0,0,1,4.86,13.49q0,11.61-7.82,18.14t-21.77,6.53Zm7.73-48.36h21.11q9.67-.18,15-4.37t5.31-12.22q0-8.44-5.5-12.45t-16.62-4H662.71Zm0,6.27V86.93H685.9q9.92,0,15.73-4.84t5.82-13.44q0-8.12-5.56-12.83T686.52,51.1Z"/><path class="cls-3" d="M740.49,93.19H733V.69h7.53Z"/><path class="cls-3" d="M756.77,59.65a36.94,36.94,0,0,1,3.8-16.92A28.2,28.2,0,0,1,771.31,31a29.9,29.9,0,0,1,15.74-4.18q13.58,0,22,9.12t8.42,24.18v1.51a37.39,37.39,0,0,1-3.8,17A27.61,27.61,0,0,1,803,90.3a30.37,30.37,0,0,1-15.77,4.1q-13.51,0-22-9.13t-8.45-24.18Zm7.54,2q0,11.69,6.31,19.18a22,22,0,0,0,33,0Q810,73.32,810,61V59.65A31.9,31.9,0,0,0,807.09,46a22.39,22.39,0,0,0-8.1-9.61A21.44,21.44,0,0,0,787.05,33a20.42,20.42,0,0,0-16.4,7.56q-6.35,7.56-6.34,19.78Z"/><path class="cls-3" d="M830,60q0-15.3,7.07-24.24t19.2-8.94q13.88,0,21.11,10.6l.37-9.4h7V91.87q0,12.59-7.35,19.93t-19.92,7.35a31.47,31.47,0,0,1-13.54-3A26.1,26.1,0,0,1,833.8,108l4.21-4.34q8,9.39,19,9.4,9.42,0,14.7-5.33T877.15,93V84.76q-7.23,9.64-21,9.64a23,23,0,0,1-19-9Q830,76.33,830,61Zm7.61,1.27q0,12.47,5.21,19.66t14.7,7.19q13.89,0,19.67-11.92V45.92a20.68,20.68,0,0,0-7.6-9.55,21.22,21.22,0,0,0-11.94-3.28q-9.5,0-14.77,7.14T837.57,61.28Z"/></svg>