<svg id="Layer_1" data-name="Layer 1" xmlns="http://www.w3.org/2000/svg" xmlns:xlink="http://www.w3.org/1999/xlink" viewBox="0 0 1951.18 722.28"><defs><style>.cls-1{fill:none;}.cls-2{clip-path:url(#clip-path);}.cls-3{fill:url(#linear-gradient);}.cls-4{fill:url(#linear-gradient-2);}.cls-5{fill:url(#linear-gradient-3);}.cls-6{fill:url(#linear-gradient-4);}.cls-7{fill:url(#linear-gradient-5);}.cls-8{fill:url(#linear-gradient-6);}</style><clipPath id="clip-path"><path class="cls-1" d="M-5.25,722.28q.36-319.11.71-638.23a6436.29,6436.29,0,0,1,1962.23,19.1q-4.53,309.57-9,619.13Z"/></clipPath><linearGradient id="linear-gradient" x1="1837.44" y1="674.5" x2="1906.08" y2="-521.41" gradientTransform="matrix(-0.25, -1.41, 0.8, -0.14, 808.62, 2991.23)" gradientUnits="userSpaceOnUse"><stop offset="0" stop-color="#2a0cbf"/><stop offset="0.23" stop-color="#2f12c3"/><stop offset="0.52" stop-color="#3e22cd"/><stop offset="0.85" stop-color="#573cdd"/><stop offset="1" stop-color="#644ae6"/></linearGradient><linearGradient id="linear-gradient-2" x1="1628.73" y1="1190.28" x2="2089.65" y2="-34.18" gradientTransform="matrix(-0.4, -1.13, 0.64, -0.31, 1035.07, 2565.25)" gradientUnits="userSpaceOnUse"><stop offset="0" stop-color="#241dc2"/><stop offset="0" stop-color="#241dc2"/><stop offset="0.25" stop-color="#2923c6"/><stop offset="0.56" stop-color="#3833d1"/><stop offset="0.92" stop-color="#514de2"/><stop offset="1" stop-color="#5854e7"/><stop offset="1" stop-color="#5854e7"/></linearGradient><linearGradient id="linear-gradient-3" x1="1132.9" y1="1746.37" x2="1962.72" y2="683.14" gradientTransform="matrix(-0.55, -0.85, 0.48, -0.48, 1261.51, 2139.28)" gradientUnits="userSpaceOnUse"><stop offset="0" stop-color="#1d2ec5"/><stop offset="0" stop-color="#1d2ec5"/><stop offset="0.27" stop-color="#2234c9"/><stop offset="0.6" stop-color="#3244d4"/><stop offset="0.98" stop-color="#4b5ee7"/><stop offset="1" stop-color="#4c5fe8"/><stop offset="1" stop-color="#4c5fe8"/></linearGradient><linearGradient id="linear-gradient-4" x1="327.39" y1="1853.48" x2="1368.31" y2="1133.08" gradientTransform="matrix(-0.7, -0.57, 0.32, -0.66, 1487.95, 1713.31)" gradientUnits="userSpaceOnUse"><stop offset="0" stop-color="#1740c8"/><stop offset="0" stop-color="#1740c8"/><stop offset="0.3" stop-color="#1c46cc"/><stop offset="0.67" stop-color="#2c56d9"/><stop offset="1" stop-color="#3f69e8"/><stop offset="1" stop-color="#3f69e8"/></linearGradient><linearGradient id="linear-gradient-5" x1="-323.47" y1="1250.47" x2="720.26" y2="924.53" gradientTransform="matrix(-0.85, -0.28, 0.16, -0.83, 1714.39, 1287.33)" gradientUnits="userSpaceOnUse"><stop offset="0" stop-color="#1051cb"/><stop offset="0" stop-color="#1051cb"/><stop offset="0.33" stop-color="#1657d0"/><stop offset="0.74" stop-color="#2667dd"/><stop offset="1" stop-color="#3374e9"/><stop offset="1" stop-color="#3374e9"/></linearGradient><linearGradient id="linear-gradient-6" x1="-509.98" y1="440.08" x2="400.27" y2="440.08" gradientTransform="translate(1940.84 861.36) rotate(180)" gradientUnits="userSpaceOnUse"><stop offset="0" stop-color="#0a62ce"/><stop offset="0.44" stop-color="#0d65d1"/><stop offset="0.73" stop-color="#156dd9"/><stop offset="0.96" stop-color="#247be7"/><stop offset="1" stop-color="#277eea"/></linearGradient></defs><title>footer_bg</title><g class="cls-2"><path class="cls-3" d="M12,750.32C-87.78,568.06-102.79,237.86-36,26.43c63.12-199.93,185.18-248.81,245.64-273C256-265.16,517.12-357.55,735-31.36c34.94,52.33,179,268,174.31,478.51C899.46,890.86,232.54,1153.41,12,750.32Z"/><path class="cls-4" d="M341.11,720.88C219,570.06,152.43,261.7,210.1,57.85c56.59-200,215.35-251.19,314.41-331.73C564-306,748.5-359.35,962.71-124.74c42,46,194,274.35,184,500.38C1129.27,768.33,589.45,1027.71,341.11,720.88Z"/><path class="cls-5" d="M755.18,720.86c-149.67-120.7-262.88-406-214-602.16C591-81.47,790.83-125.35,924.32-271.76c35.93-39.41,204.63-111.36,351,83,60.32,28.14,209.68,280.64,193.65,522.26C1446.34,675.19,1018.48,933.2,755.18,720.86Z"/><path class="cls-6" d="M1217.86,767.71c-183.19-87.05-337.34-352.91-297-541.32C963.67,26,1212.26-5.16,1372.74-222.79c33.77-45.8,153.18-111.55,263.89,17,73,16,226.31,286.94,203.31,544.12C1813.94,629,1484.17,894.26,1217.86,767.71Z"/><path class="cls-7" d="M1648.21,861.82C1428.64,817.93,1236.13,562,1268.14,381.36c35.56-200.7,339.81-216.08,520.69-507.9,32.4-52.27,101.74-111.75,176.73-49.11,85.7,4,244.51,293.41,213,566C2150.79,630.22,1913.86,914.92,1648.21,861.82Z"/><path class="cls-8" d="M2005.35,971.92c271.38-11,410.39-324.19,438.58-513.55,42.82-287.53-124.25-596-222.64-587.87-39.28,3.25-58.08,56.19-89.57,115.2-196.14,367.52-561.54,365.6-589.46,566.63C1518.26,725.09,1752.63,982.21,2005.35,971.92Z"/></g></svg>