<svg id="Layer_1" data-name="Layer 1" xmlns="http://www.w3.org/2000/svg" viewBox="0 0 36 36"><defs><style>.cls-1{fill:#fff;fill-rule:evenodd;}</style></defs><title>linkedin_white</title><path class="cls-1" d="M18,0A18,18,0,1,0,36,18,18,18,0,0,0,18,0ZM14.2,26H10.42V14.93H14.2ZM12.27,13.38a1.92,1.92,0,0,1-2.1-1.87,2,2,0,0,1,2.19-1.95,2,2,0,0,1,2.1,1.95A2,2,0,0,1,12.27,13.38ZM27.65,26H23.88V20c0-1.49-.58-2.56-1.92-2.56A2,2,0,0,0,20,18.79a1.64,1.64,0,0,0-.17.92V26H16.11s.08-10.19,0-11.26h3.76v1.65a3.62,3.62,0,0,1,3.43-1.9c2.51,0,4.35,1.57,4.35,5Z"/></svg>