<svg id="Réteg_1" data-name="Réteg 1" xmlns="http://www.w3.org/2000/svg" xmlns:xlink="http://www.w3.org/1999/xlink" viewBox="0 0 100.13 15.27"><defs><style>.cls-1{fill:none;}.cls-2{clip-path:url(#clip-path);}.cls-3{fill:#277eec;}</style><clipPath id="clip-path"><path class="cls-1" d="M1761.05,41.38c1.74-15.8,3.27-28.31,4.47-40.86,1.44-15,2.53-16.29,17.2-16.31,39-.05,78,.25,117.07-.19,10.32-.11,14,3.35,14,13.76q-.32,249.06,0,498.12c0,10.9-4,14.68-14.8,14.57q-56.73-.62-113.48,0c-10.81.12-14.74-4.3-15.52-14.62-1-13.47-3.24-26.85-5.17-40.23-.32-2.23-1.19-5.26-2.82-6.22-2.52-1.5-4,1.55-5.41,3.33-34.18,42.59-81.24,61.34-133.17,66.44-59,5.78-115.83-5.13-168.2-34.59-58.67-33-96-83.15-113.58-147.22-18.2-66.37-18-133.24,5.72-198.51C1377.93,54.58,1438.6,2.49,1524.61-20c39.17-10.25,79.17-13.14,119.55-6.31C1690.13-18.53,1729.77.2,1761.05,41.38ZM1621.22,383.73c80.31,1.93,138.37-60,139.18-130.39,1-85.36-56.23-144.19-138.05-144.25-81.42-.06-138.51,56.8-138.62,138.07C1483.62,329,1538.65,383.67,1621.22,383.73ZM3005.43,38.82c1.81-15.1,3.9-29.25,5.06-43.48.65-7.94,3.72-11.26,11.82-11.22,41,.21,82,.33,123,0C3156.66-16,3157-9.55,3157-1.25q-.15,117.06-.05,234.13,0,129.6,0,259.21c0,18.16,0,18.21-17.59,18.22-36.63,0-73.26-.18-109.89.13-9.07.08-13.87-2.32-14.84-12.3-1.61-16.46-4.53-32.79-7.2-51.23-10.69,8.9-17,19.1-26.26,26.52-37.75,30.32-81,45.07-128.93,46.77-44.4,1.57-87.4-5.56-128.18-23.31-66-28.75-111-77.55-133.88-145.86-22.12-66.09-23.84-133.33-2.92-199.69,31.81-100.86,103-157.88,205.89-176.4,47.79-8.59,95.08-6.71,141,11.27,25.08,9.82,45.73,25.48,63.3,45.61C2999.44,34.12,3000.53,37.43,3005.43,38.82Zm-141,344.9c80.38,2.47,139.2-59.74,140.26-130.9,1.24-83.37-56.93-143.93-137.79-143.62-75.5.3-139.06,48.41-139.29,139.06C2727.4,337,2792.45,384.43,2864.43,383.72Zm1244.44-344c4.19-14.39,4.88-27.94,5.66-41.21.68-11.68,5.36-14.62,16.25-14.48,38.22.5,76.46.16,114.69.21,15.64,0,15.84.22,15.84,16.21q0,219.24,0,438.48c0,19.12-.4,38.24.15,57.34.3,10.09-2.86,14.35-13.52,14.23-38.22-.42-76.46-.29-114.69-.08-8.7.05-12.72-3-14-12.1-2.32-16.4-2.91-33.15-7.42-48.8-2.63-1-3.82.25-4.8,1.45-39.54,48.06-92.48,67.14-152.61,69.15-58.3,1.95-113.22-11.05-162.64-42.85-63.74-41-96.85-101.84-109.12-174.94-9.11-54.24-5.84-108,12.23-160.23,26-75.18,76.88-126.45,151.32-153.52,56.3-20.47,114-24.9,172.51-9.16C4055.44-10.73,4079.4,5.16,4108.87,39.69ZM3833,248c0,81.56,54.68,135,137,136,80.62.92,138.7-59.84,139.22-129.69.66-89.28-56.23-144.76-138.5-145C3889.34,108.89,3833,166,3833,248Zm798,270.14c-72.79.23-133.52-14.17-187.45-51.67C4384.69,425.5,4352,367.92,4340,298.24c-8.5-49.38-5.78-98.47,10.56-146.13C4381.17,63,4443.73,6.93,4533.52-17.51c76.82-20.91,153.42-17,226.59,16,84.52,38.1,133.92,104.7,148.33,195.83,9.69,61.31,3.86,121.59-23.92,178.26-35.71,72.83-95.39,115.57-172.67,135.44C4682.82,515.47,4653.2,519.06,4631,518.11Zm-138.7-272.7c1.13,51.69,17,94.82,62.32,121.54,34.75,20.48,73,21.22,111.17,11.89,40-9.76,67.09-35,81.38-73.7,8.3-22.45,10.34-45.9,8.05-69.42-4.75-48.89-24.5-89.95-71-111.15-47.61-21.71-95.84-19.5-139.65,11C4506.46,162.09,4494,202.18,4492.33,245.41ZM2259.79,335c-39.67-113.13-82.58-225-126.39-336.62-4.06-10.34-9.18-14.68-20.83-14.51-46.59.69-93.2.28-139.8.28-19.5,0-19.48,0-11.83,17.93q106.68,250,213.2,500c3.79,8.91,8.81,13,18.7,13q71.1-.47,142.2,0c9.77.06,15-3.74,18.84-12.76Q2461.26,250.06,2569.12-2c5.24-12.28,4.37-13.75-8.74-13.77-48.2-.08-96.39.19-144.58-.23-9.46-.08-14.33,3.06-17.71,11.92-32.78,86-67.55,171.13-98.93,257.62-11,30.24-22.46,60.28-34.79,93.3C2262.05,340.89,2260.83,338,2259.79,335ZM3262.4-13.75c-12.23-.11-15.81,4.06-15.58,15.91q.94,49.56,0,99.15c-.22,11.71,4.16,15.28,15.35,14.93,20.29-.63,40.61-.22,60.92-.15,14.86,0,15.41.58,15.43,15.58,0,55.75-.64,111.52.25,167.26.59,37,2.06,74.06,13.86,109.73,17.77,53.7,52.4,90.19,107.81,105.31,32.79,8.94,66.21,8.14,99.58,5.18a284.54,284.54,0,0,0,74.33-16.86c16.21-6,16.48-6.24,11.78-23.33-2-7.29-4.07-14.57-6.08-21.86-7.32-26.48-14.72-52.94-21.89-79.46-2-7.53-4.49-10.85-13.17-6.44-18.19,9.23-38.09,10.95-58.2,10-22-1-37.66-11.43-46.26-31.92a88.77,88.77,0,0,1-6.7-34.93c.08-61.33.2-122.66-.2-184-.07-10.86,3.41-14.68,14.4-14.52,35.44.52,70.89-.08,106.33.34,10.4.12,13.94-3.64,13.8-14-.45-33.45-.62-66.92.08-100.35.25-12.16-3.87-15.75-15.8-15.65-58.14.5-116.29.23-174.43.23C3379.48-13.51,3320.93-13.22,3262.4-13.75Z"/></clipPath></defs><title>avataologo_small</title><g class="cls-2"><image width="4003" height="2250" transform="translate(-359.37 -1031.32) scale(1.38)"/></g><path class="cls-3" d="M12.08,2c.05-.44.09-.79.12-1.13s.07-.45.48-.45H16c.29,0,.4.09.4.38q0,6.9,0,13.79c0,.31-.12.41-.42.41H12.76c-.3,0-.41-.12-.43-.41s-.09-.74-.15-1.11c0-.06,0-.15-.08-.17s-.11,0-.15.09a5.19,5.19,0,0,1-3.72,1.84,7.9,7.9,0,0,1-4.7-1A6.47,6.47,0,0,1,.36,10.18,8.81,8.81,0,0,1,.52,4.69,6.77,6.77,0,0,1,5.47.29,7.84,7.84,0,0,1,8.81.11,4.92,4.92,0,0,1,12.08,2ZM8.17,11.47a3.7,3.7,0,0,0,3.89-3.61,3.73,3.73,0,0,0-3.86-4A3.69,3.69,0,0,0,4.33,7.69,3.61,3.61,0,0,0,8.17,11.47ZM46.84,1.92c0-.42.11-.81.14-1.21,0-.22.11-.31.33-.31h3.44c.32,0,.33.18.33.41,0,2.16,0,4.32,0,6.48v7.18c0,.5,0,.5-.5.5H47.51c-.25,0-.38-.07-.41-.34-.05-.46-.13-.91-.2-1.42-.3.24-.48.53-.73.73a6,6,0,0,1-3.61,1.3A8.28,8.28,0,0,1,39,14.6a6.51,6.51,0,0,1-3.74-4A8.72,8.72,0,0,1,35.16,5,6.84,6.84,0,0,1,40.91.15a7.15,7.15,0,0,1,3.94.31,4.56,4.56,0,0,1,1.77,1.26C46.68,1.79,46.71,1.88,46.84,1.92ZM42.9,11.47a3.73,3.73,0,0,0,3.92-3.63,3.73,3.73,0,0,0-3.85-4,3.67,3.67,0,0,0-3.89,3.85A3.6,3.6,0,0,0,42.9,11.47ZM77.67,1.94A4.67,4.67,0,0,0,77.83.8c0-.32.15-.4.45-.4h3.21c.43,0,.44,0,.44.44V13c0,.52,0,1.05,0,1.58,0,.28-.08.4-.37.4H78.35c-.24,0-.35-.09-.39-.34a10,10,0,0,0-.21-1.35c-.07,0-.1,0-.13,0a5.47,5.47,0,0,1-4.27,1.91,7.74,7.74,0,0,1-4.54-1.18,6.81,6.81,0,0,1-3-4.85,8.89,8.89,0,0,1,.34-4.43A6.64,6.64,0,0,1,70.33.53,7.94,7.94,0,0,1,75.15.27,4.63,4.63,0,0,1,77.67,1.94ZM70,7.71a3.59,3.59,0,0,0,3.83,3.76,3.7,3.7,0,0,0,3.89-3.59A3.86,3.86,0,1,0,70,7.71Zm22.3,7.48A8.74,8.74,0,0,1,87,13.76,6.8,6.8,0,0,1,84.13,9.1a8.07,8.07,0,0,1,.29-4A7,7,0,0,1,89.53.36,9.26,9.26,0,0,1,95.86.8,6.83,6.83,0,0,1,100,6.22a8.1,8.1,0,0,1-.67,4.94,7,7,0,0,1-4.82,3.75A8.09,8.09,0,0,1,92.26,15.19ZM88.38,7.64A3.65,3.65,0,0,0,90.12,11a4.06,4.06,0,0,0,3.11.33,3.1,3.1,0,0,0,2.27-2,4.33,4.33,0,0,0,.23-1.92,3.49,3.49,0,0,0-2-3.08,3.78,3.78,0,0,0-3.9.31A3.61,3.61,0,0,0,88.38,7.64ZM26,10.12C24.9,7,23.7,3.89,22.48.8A.52.52,0,0,0,21.9.4c-1.3,0-2.6,0-3.91,0-.54,0-.54,0-.33.5q3,6.93,6,13.85a.5.5,0,0,0,.52.36h4a.49.49,0,0,0,.53-.35q3-7,6-14c.15-.34.13-.38-.24-.38h-4a.44.44,0,0,0-.49.33C29,3.11,28,5.47,27.11,7.86c-.3.84-.63,1.67-1,2.59ZM54,.46c-.34,0-.44.11-.43.44,0,.92,0,1.83,0,2.75,0,.32.11.42.43.41.56,0,1.13,0,1.7,0,.41,0,.43,0,.43.43,0,1.54,0,3.09,0,4.63a9.8,9.8,0,0,0,.38,3,4.18,4.18,0,0,0,3,2.91,7.93,7.93,0,0,0,2.79.15,7.77,7.77,0,0,0,2.07-.47c.46-.17.46-.17.33-.65,0-.2-.11-.4-.17-.6L64,11.3c-.06-.21-.12-.3-.37-.18A3.22,3.22,0,0,1,62,11.4a1.38,1.38,0,0,1-1.3-.89,2.41,2.41,0,0,1-.18-1c0-1.7,0-3.4,0-5.1,0-.3.1-.4.4-.4,1,0,2,0,3,0,.3,0,.39-.1.39-.39,0-.92,0-1.85,0-2.77,0-.34-.11-.44-.44-.44-1.62,0-3.25,0-4.87,0S55.66.48,54,.46Z"/></svg>