<svg id="Layer_1" data-name="Layer 1" xmlns="http://www.w3.org/2000/svg" viewBox="0 0 36 36"><defs><style>.cls-1{fill:#fff;}</style></defs><title>twitter_white</title><path class="cls-1" d="M18,0A18,18,0,1,0,36,18,18,18,0,0,0,18,0Zm7.9,14,0,0c-.25.13-.29.33-.28.61a10.59,10.59,0,0,1-.81,4.18,11.29,11.29,0,0,1-1.69,2.88,10.69,10.69,0,0,1-2,1.87A9.94,9.94,0,0,1,18.39,25a11.2,11.2,0,0,1-5.78.34,10.14,10.14,0,0,1-2.55-.88c-.34-.18-.67-.36-1-.56A8.15,8.15,0,0,0,12,23.62a7.11,7.11,0,0,0,2.58-1.32,3.79,3.79,0,0,1-3.46-2.61c.27,0,.54,0,.8,0a5.63,5.63,0,0,0,.81-.11,3.83,3.83,0,0,1-2.95-3.74,4.13,4.13,0,0,0,1.68.42A3.75,3.75,0,0,1,9.87,14a3.81,3.81,0,0,1,.41-2.74,10.82,10.82,0,0,0,7.79,4c0-.24-.05-.46-.06-.68a3.79,3.79,0,0,1,4.54-3.89,3.55,3.55,0,0,1,1.88,1,.22.22,0,0,0,.26.07,8.05,8.05,0,0,0,2.11-.8l.08,0s0,0,.05,0a4,4,0,0,1-1.55,2,6.71,6.71,0,0,0,2.06-.55A7.57,7.57,0,0,1,25.9,14Z"/></svg>