<svg id="Layer_1" data-name="Layer 1" xmlns="http://www.w3.org/2000/svg" xmlns:xlink="http://www.w3.org/1999/xlink" viewBox="0 0 785.86 147.25"><defs><style>.cls-1,.cls-79,.cls-80{fill:none;}.cls-2{fill:#277eec;}.cls-3,.cls-81{fill:#fff;}.cls-4{clip-path:url(#clip-path);}.cls-5{fill:#092e43;}.cls-6{fill:#092d44;}.cls-7{fill:#09293e;}.cls-8{fill:#092f44;}.cls-9{fill:#0d2d42;}.cls-10{fill:#052f47;}.cls-11{fill:#093047;}.cls-12{fill:#042435;}.cls-13{fill:#08314b;}.cls-14{fill:#07334c;}.cls-15{fill:#0a304c;}.cls-16{fill:#0f3d58;}.cls-17{fill:#0c3049;}.cls-18{fill:#052e46;}.cls-19{fill:#08354f;}.cls-20{fill:#0a3651;}.cls-21{fill:#103a59;}.cls-22{fill:#143d55;}.cls-23{fill:#0d354c;}.cls-24{fill:#11425d;}.cls-25{fill:#07324c;}.cls-26{fill:#073551;}.cls-27{fill:#083551;}.cls-28{fill:#032d43;}.cls-29{fill:#0d3858;}.cls-30{fill:#123f5f;}.cls-31{fill:#052c44;}.cls-32{fill:#123d57;}.cls-33{fill:#042b42;}.cls-34{fill:#0f425e;}.cls-35{fill:#022b44;}.cls-36{fill:#062e47;}.cls-37{fill:#042940;}.cls-38{fill:#052e47;}.cls-39{fill:#1e7088;}.cls-40{fill:#0e3e5b;}.cls-41{fill:#07314b;}.cls-42{fill:#2c6a89;}.cls-43{fill:#06334e;}.cls-44{fill:#052b43;}.cls-45{fill:#093a5a;}.cls-46{fill:#073756;}.cls-47{fill:#093755;}.cls-48{fill:#042f4a;}.cls-49{fill:#093651;}.cls-50{fill:#042c45;}.cls-51{fill:#326c93;}.cls-52{fill:#073d5e;}.cls-53{fill:#042e4b;}.cls-54{fill:#083552;}.cls-55{fill:#053652;}.cls-56{fill:#0b3a5b;}.cls-57{fill:#02304b;}.cls-58{fill:#073755;}.cls-59{fill:#053451;}.cls-60{fill:#042f4b;}.cls-61{fill:#144c6f;}.cls-62{fill:#0e4061;}.cls-63{fill:#073a5a;}.cls-64{fill:#05324b;}.cls-65{fill:#05314c;}.cls-66{fill:#032d44;}.cls-67{fill:#04334f;}.cls-68{fill:#1d5573;}.cls-69{fill:#04344c;}.cls-70{fill:#042f46;}.cls-71{fill:#266686;}.cls-72{fill:#093951;}.cls-73{opacity:0.49;fill:url(#linear-gradient);}.cls-74{fill:#1470e3;}.cls-75{fill:#ffb83b;}.cls-76{fill:#fc6;}.cls-77{fill:#ffe0a9;}.cls-78{fill:#c5e9f5;}.cls-79{stroke:#c5e9f5;stroke-linejoin:round;}.cls-79,.cls-80{stroke-linecap:round;}.cls-80{stroke:#fff;stroke-miterlimit:10;stroke-width:0.75px;}.cls-81{opacity:0.33;}</style><clipPath id="clip-path"><path class="cls-1" d="M199.06,0H10.46A10.46,10.46,0,0,0,0,10.46V136.79a10.46,10.46,0,0,0,10.46,10.46H384.38c-4.16-15.17-25.58-87.08-96.76-125.14C252.35,3.26,218.76.15,199.06,0Z"/></clipPath><linearGradient id="linear-gradient" x1="2.55" y1="216.19" x2="311.81" y2="-12.08" gradientUnits="userSpaceOnUse"><stop offset="0.04" stop-color="#a70056"/><stop offset="0.17" stop-color="#7e1080"/><stop offset="0.38" stop-color="#4826b6"/><stop offset="0.55" stop-color="#2135de"/><stop offset="0.69" stop-color="#093ff6"/><stop offset="0.77" stop-color="#0042ff"/></linearGradient></defs><title>AvataoDemoAd</title><rect class="cls-2" width="785.86" height="147.25" rx="10.46"/><path class="cls-3" d="M406.9,55.54a7,7,0,0,1-2.77-1.35,2.57,2.57,0,0,1-.87-2A2.71,2.71,0,0,1,404.32,50a4.19,4.19,0,0,1,2.75-.87,4.63,4.63,0,0,1,2.07.45,3.43,3.43,0,0,1,1.4,1.23,3.18,3.18,0,0,1,.49,1.72h-1.48a2.05,2.05,0,0,0-.65-1.6,3.16,3.16,0,0,0-3.53-.1,1.58,1.58,0,0,0-.61,1.33,1.46,1.46,0,0,0,.58,1.17,5.83,5.83,0,0,0,2,.87,9.49,9.49,0,0,1,2.19.86,3.48,3.48,0,0,1,1.17,1.11,2.87,2.87,0,0,1,.38,1.49A2.63,2.63,0,0,1,410,59.87a4.48,4.48,0,0,1-2.84.82,5.38,5.38,0,0,1-2.16-.44A3.65,3.65,0,0,1,403.45,59a3,3,0,0,1-.54-1.75h1.48a1.93,1.93,0,0,0,.75,1.61,3.18,3.18,0,0,0,2,.59A2.92,2.92,0,0,0,409,59a1.56,1.56,0,0,0,.62-1.3,1.5,1.5,0,0,0-.58-1.27A6.53,6.53,0,0,0,406.9,55.54Z"/><path class="cls-3" d="M414.66,50.18v2h1.56v1.1h-1.56v5.18a1.16,1.16,0,0,0,.21.75.88.88,0,0,0,.71.25,3.53,3.53,0,0,0,.68-.09v1.15a4.28,4.28,0,0,1-1.1.15,1.78,1.78,0,0,1-1.44-.58,2.49,2.49,0,0,1-.48-1.64V53.3h-1.52V52.2h1.52v-2Z"/><path class="cls-3" d="M423,60.54a3.1,3.1,0,0,1-.2-.88,3.16,3.16,0,0,1-2.37,1,2.91,2.91,0,0,1-2-.7,2.23,2.23,0,0,1-.79-1.77,2.36,2.36,0,0,1,1-2,4.65,4.65,0,0,1,2.78-.72h1.39v-.65a1.58,1.58,0,0,0-.45-1.19,1.79,1.79,0,0,0-1.32-.45,2.09,2.09,0,0,0-1.28.39,1.15,1.15,0,0,0-.51.93h-1.43a1.94,1.94,0,0,1,.44-1.21,3.06,3.06,0,0,1,1.2-.92,4.15,4.15,0,0,1,1.67-.33,3.31,3.31,0,0,1,2.26.72,2.6,2.6,0,0,1,.84,2v3.84a4.57,4.57,0,0,0,.3,1.82v.13Zm-2.36-1.09a2.53,2.53,0,0,0,1.27-.35,2.09,2.09,0,0,0,.87-.9V56.49h-1.12c-1.75,0-2.62.51-2.62,1.53a1.29,1.29,0,0,0,.45,1A1.73,1.73,0,0,0,420.67,59.45Z"/><path class="cls-3" d="M430.5,53.48a3.88,3.88,0,0,0-.7-.06,1.89,1.89,0,0,0-1.91,1.2v5.92h-1.42V52.2h1.39l0,1a2.23,2.23,0,0,1,2-1.11,1.53,1.53,0,0,1,.63.1Z"/><path class="cls-3" d="M434.13,50.18v2h1.55v1.1h-1.55v5.18a1.16,1.16,0,0,0,.21.75.84.84,0,0,0,.7.25,3.53,3.53,0,0,0,.68-.09v1.15a4.2,4.2,0,0,1-1.09.15,1.75,1.75,0,0,1-1.44-.58,2.43,2.43,0,0,1-.49-1.64V53.3h-1.52V52.2h1.52v-2Z"/><path class="cls-3" d="M440.91,56.3a4.87,4.87,0,0,1,.91-3.09,2.86,2.86,0,0,1,2.38-1.16,2.89,2.89,0,0,1,2.32,1V48.7h1.42V60.54h-1.31l-.07-.9a2.89,2.89,0,0,1-2.38,1,2.86,2.86,0,0,1-2.36-1.19,4.91,4.91,0,0,1-.91-3.09Zm1.42.16a3.71,3.71,0,0,0,.59,2.22,1.9,1.9,0,0,0,1.62.8,2.08,2.08,0,0,0,2-1.22V54.43a2.11,2.11,0,0,0-2-1.18,1.89,1.89,0,0,0-1.63.81A4.08,4.08,0,0,0,442.33,56.46Z"/><path class="cls-3" d="M453.61,60.69a3.65,3.65,0,0,1-2.76-1.11,4.19,4.19,0,0,1-1.06-3v-.26a5,5,0,0,1,.48-2.22,3.57,3.57,0,0,1,1.32-1.52,3.31,3.31,0,0,1,1.85-.55A3.09,3.09,0,0,1,456,53.12a4.62,4.62,0,0,1,.9,3.06v.6h-5.64a3,3,0,0,0,.72,2,2.28,2.28,0,0,0,1.75.76,2.55,2.55,0,0,0,1.28-.31,3.4,3.4,0,0,0,.92-.82l.87.68A3.52,3.52,0,0,1,453.61,60.69Zm-.17-7.47a1.92,1.92,0,0,0-1.45.62,3.13,3.13,0,0,0-.73,1.76h4.18v-.1a2.72,2.72,0,0,0-.59-1.69A1.8,1.8,0,0,0,453.44,53.22Z"/><path class="cls-3" d="M462,60.69a3.65,3.65,0,0,1-2.76-1.11,4.19,4.19,0,0,1-1.06-3v-.26a5,5,0,0,1,.48-2.22A3.57,3.57,0,0,1,460,52.6a3.31,3.31,0,0,1,1.85-.55,3.09,3.09,0,0,1,2.52,1.07,4.62,4.62,0,0,1,.9,3.06v.6h-5.64a3,3,0,0,0,.72,2,2.28,2.28,0,0,0,1.75.76,2.55,2.55,0,0,0,1.28-.31,3.4,3.4,0,0,0,.92-.82l.87.68A3.52,3.52,0,0,1,462,60.69Zm-.17-7.47a1.92,1.92,0,0,0-1.45.62,3.13,3.13,0,0,0-.73,1.76h4.18v-.1a2.72,2.72,0,0,0-.59-1.69A1.8,1.8,0,0,0,461.8,53.22Z"/><path class="cls-3" d="M473.92,56.46a5,5,0,0,1-.87,3.07,2.82,2.82,0,0,1-2.36,1.16,3.07,3.07,0,0,1-2.39-1v4h-1.43V52.2h1.31l.07.92a2.91,2.91,0,0,1,2.41-1.07A2.82,2.82,0,0,1,473,53.18a5,5,0,0,1,.88,3.15Zm-1.43-.16a3.71,3.71,0,0,0-.6-2.23,2,2,0,0,0-1.65-.82,2.11,2.11,0,0,0-1.94,1.15v4a2.11,2.11,0,0,0,2,1.14,1.93,1.93,0,0,0,1.63-.82A4,4,0,0,0,472.49,56.3Z"/><path class="cls-3" d="M479.19,60.69a3.65,3.65,0,0,1-2.76-1.11,4.15,4.15,0,0,1-1.07-3v-.26a5,5,0,0,1,.48-2.22,3.63,3.63,0,0,1,1.32-1.52,3.34,3.34,0,0,1,1.85-.55,3.11,3.11,0,0,1,2.53,1.07,4.62,4.62,0,0,1,.9,3.06v.6h-5.65a3,3,0,0,0,.72,2,2.28,2.28,0,0,0,1.75.76,2.53,2.53,0,0,0,1.28-.31,3.26,3.26,0,0,0,.92-.82l.87.68A3.51,3.51,0,0,1,479.19,60.69ZM479,53.22a1.92,1.92,0,0,0-1.45.62,3.05,3.05,0,0,0-.72,1.76H481v-.1a2.71,2.71,0,0,0-.58-1.69A1.81,1.81,0,0,0,479,53.22Z"/><path class="cls-3" d="M485.44,52.2l0,1a3,3,0,0,1,2.5-1.2c1.76,0,2.65,1,2.66,3v5.51h-1.42V55a1.92,1.92,0,0,0-.41-1.33,1.65,1.65,0,0,0-1.26-.44,2.1,2.1,0,0,0-1.22.37,2.54,2.54,0,0,0-.82,1v5.94h-1.42V52.2Z"/><path class="cls-3" d="M492.8,50a.87.87,0,0,1,.21-.59.95.95,0,0,1,1.26,0,.83.83,0,0,1,.22.59.81.81,0,0,1-.22.58,1,1,0,0,1-1.26,0A.84.84,0,0,1,492.8,50Zm1.54,10.55h-1.42V52.2h1.42Z"/><path class="cls-3" d="M498,52.2l0,1a3,3,0,0,1,2.49-1.2c1.77,0,2.65,1,2.67,3v5.51h-1.43V55a1.87,1.87,0,0,0-.41-1.33,1.65,1.65,0,0,0-1.26-.44,2.07,2.07,0,0,0-1.21.37,2.46,2.46,0,0,0-.82,1v5.94h-1.43V52.2Z"/><path class="cls-3" d="M505,56.3a4.89,4.89,0,0,1,.9-3.1,3.12,3.12,0,0,1,4.77-.08l.07-.92H512v8.14a3.42,3.42,0,0,1-1,2.55,3.53,3.53,0,0,1-2.57.93,4.29,4.29,0,0,1-1.77-.39,3.11,3.11,0,0,1-1.32-1l.74-.86a2.8,2.8,0,0,0,2.25,1.14,2.19,2.19,0,0,0,1.62-.59,2.23,2.23,0,0,0,.58-1.65V59.7a2.92,2.92,0,0,1-2.33,1,2.83,2.83,0,0,1-2.37-1.18A5.1,5.1,0,0,1,505,56.3Zm1.43.16a3.8,3.8,0,0,0,.58,2.22,1.9,1.9,0,0,0,1.62.8,2.09,2.09,0,0,0,2-1.22V54.45a2.11,2.11,0,0,0-2-1.2,1.89,1.89,0,0,0-1.63.81A4.08,4.08,0,0,0,506.42,56.46Z"/><path class="cls-3" d="M520.82,58.45l1.94-6.25h1.52l-3.35,9.62c-.52,1.39-1.34,2.08-2.47,2.08l-.27,0-.53-.1V62.62l.38,0a1.85,1.85,0,0,0,1.13-.3,2.12,2.12,0,0,0,.67-1.07l.31-.85-3-8.24h1.56Z"/><path class="cls-3" d="M525.18,56.29a4.9,4.9,0,0,1,.48-2.2A3.53,3.53,0,0,1,527,52.58a3.6,3.6,0,0,1,2-.53,3.53,3.53,0,0,1,2.76,1.17,4.57,4.57,0,0,1,1,3.14v.1a5,5,0,0,1-.47,2.18A3.5,3.5,0,0,1,531,60.15a3.69,3.69,0,0,1-2,.54,3.5,3.5,0,0,1-2.75-1.18,4.5,4.5,0,0,1-1.05-3.12Zm1.43.17a3.58,3.58,0,0,0,.65,2.23,2.17,2.17,0,0,0,3.44,0,3.9,3.9,0,0,0,.64-2.39,3.53,3.53,0,0,0-.65-2.22,2.16,2.16,0,0,0-3.43,0A3.87,3.87,0,0,0,526.61,56.46Z"/><path class="cls-3" d="M539.7,59.71a3,3,0,0,1-2.44,1,2.6,2.6,0,0,1-2-.77,3.37,3.37,0,0,1-.71-2.3V52.2H536v5.39c0,1.26.51,1.89,1.54,1.89a2.12,2.12,0,0,0,2.17-1.22V52.2h1.43v8.34h-1.36Z"/><path class="cls-3" d="M547.28,53.48a3.8,3.8,0,0,0-.7-.06,1.87,1.87,0,0,0-1.9,1.2v5.92h-1.43V52.2h1.39l0,1a2.23,2.23,0,0,1,2-1.11,1.47,1.47,0,0,1,.63.1Z"/><path class="cls-3" d="M557.36,58.32a1,1,0,0,0-.44-.89,4,4,0,0,0-1.52-.55,7.37,7.37,0,0,1-1.72-.56,2.46,2.46,0,0,1-.94-.77,1.86,1.86,0,0,1-.3-1.06,2.17,2.17,0,0,1,.87-1.74,3.36,3.36,0,0,1,2.21-.7,3.47,3.47,0,0,1,2.3.73,2.32,2.32,0,0,1,.88,1.87h-1.43a1.29,1.29,0,0,0-.5-1,1.87,1.87,0,0,0-1.25-.42,1.94,1.94,0,0,0-1.22.34,1.06,1.06,0,0,0-.44.88.86.86,0,0,0,.41.78,5.35,5.35,0,0,0,1.48.5,7.77,7.77,0,0,1,1.73.57,2.51,2.51,0,0,1,1,.8,2,2,0,0,1,.32,1.13,2.15,2.15,0,0,1-.89,1.8,3.76,3.76,0,0,1-2.32.67,4.27,4.27,0,0,1-1.77-.35,2.91,2.91,0,0,1-1.21-1,2.43,2.43,0,0,1-.44-1.38h1.43a1.51,1.51,0,0,0,.57,1.14,2.24,2.24,0,0,0,1.42.42,2.3,2.3,0,0,0,1.3-.33A1,1,0,0,0,557.36,58.32Z"/><path class="cls-3" d="M564.1,60.69a3.65,3.65,0,0,1-2.76-1.11,4.15,4.15,0,0,1-1.06-3v-.26a5,5,0,0,1,.47-2.22,3.71,3.71,0,0,1,1.32-1.52,3.34,3.34,0,0,1,1.85-.55,3.11,3.11,0,0,1,2.53,1.07,4.62,4.62,0,0,1,.9,3.06v.6H561.7a3,3,0,0,0,.72,2,2.29,2.29,0,0,0,1.75.76,2.53,2.53,0,0,0,1.28-.31,3.26,3.26,0,0,0,.92-.82l.87.68A3.51,3.51,0,0,1,564.1,60.69Zm-.18-7.47a1.92,1.92,0,0,0-1.45.62,3.05,3.05,0,0,0-.72,1.76h4.17v-.1a2.71,2.71,0,0,0-.58-1.69A1.81,1.81,0,0,0,563.92,53.22Z"/><path class="cls-3" d="M572.34,59.53a2,2,0,0,0,1.33-.47,1.61,1.61,0,0,0,.64-1.15h1.34a2.54,2.54,0,0,1-.49,1.36,3.32,3.32,0,0,1-1.21,1,3.6,3.6,0,0,1-1.61.38,3.44,3.44,0,0,1-2.71-1.14,4.51,4.51,0,0,1-1-3.11v-.23a5.13,5.13,0,0,1,.44-2.17,3.42,3.42,0,0,1,1.29-1.47,3.62,3.62,0,0,1,2-.52,3.32,3.32,0,0,1,2.33.84,3,3,0,0,1,1,2.18h-1.34a1.94,1.94,0,0,0-.62-1.33,1.88,1.88,0,0,0-1.36-.52,2,2,0,0,0-1.68.78,3.65,3.65,0,0,0-.6,2.26v.27a3.58,3.58,0,0,0,.6,2.22A2,2,0,0,0,572.34,59.53Z"/><path class="cls-3" d="M582.4,59.71a3,3,0,0,1-2.44,1,2.62,2.62,0,0,1-2-.77,3.36,3.36,0,0,1-.7-2.3V52.2h1.42v5.39c0,1.26.52,1.89,1.54,1.89a2.13,2.13,0,0,0,2.18-1.22V52.2h1.42v8.34h-1.35Z"/><path class="cls-3" d="M590,53.48a3.88,3.88,0,0,0-.7-.06,1.89,1.89,0,0,0-1.91,1.2v5.92H586V52.2h1.38l0,1a2.21,2.21,0,0,1,2-1.11,1.56,1.56,0,0,1,.64.1Z"/><path class="cls-3" d="M591.3,50a.83.83,0,0,1,.22-.59.78.78,0,0,1,.62-.24.83.83,0,0,1,.64.24A.87.87,0,0,1,593,50a.84.84,0,0,1-.21.58.86.86,0,0,1-.64.23.77.77,0,0,1-.84-.81Zm1.55,10.55h-1.43V52.2h1.43Z"/><path class="cls-3" d="M597.06,50.18v2h1.56v1.1h-1.56v5.18a1.16,1.16,0,0,0,.21.75.86.86,0,0,0,.71.25,3.44,3.44,0,0,0,.67-.09v1.15a4.2,4.2,0,0,1-1.09.15,1.75,1.75,0,0,1-1.44-.58,2.49,2.49,0,0,1-.49-1.64V53.3h-1.51V52.2h1.51v-2Z"/><path class="cls-3" d="M603,58.45,605,52.2h1.53l-3.36,9.62c-.52,1.39-1.34,2.08-2.47,2.08l-.27,0-.53-.1V62.62l.38,0a1.85,1.85,0,0,0,1.13-.3,2.06,2.06,0,0,0,.67-1.07l.32-.85-3-8.24h1.56Z"/><path class="cls-3" d="M614,56.68l-.89.93v2.93h-1.43V48.7h1.43v7.16l.76-.92,2.6-2.74h1.73l-3.24,3.48,3.62,4.86h-1.67Z"/><path class="cls-3" d="M621,52.2l0,1a3,3,0,0,1,2.49-1.2c1.76,0,2.65,1,2.67,3v5.51h-1.43V55a1.87,1.87,0,0,0-.41-1.33,1.65,1.65,0,0,0-1.26-.44,2.12,2.12,0,0,0-1.22.37,2.43,2.43,0,0,0-.81,1v5.94h-1.43V52.2Z"/><path class="cls-3" d="M628,56.29a4.9,4.9,0,0,1,.48-2.2,3.53,3.53,0,0,1,1.34-1.51,3.63,3.63,0,0,1,2-.53,3.53,3.53,0,0,1,2.76,1.17,4.57,4.57,0,0,1,1.05,3.14v.1a5,5,0,0,1-.47,2.18,3.5,3.5,0,0,1-1.33,1.51,3.69,3.69,0,0,1-2,.54A3.5,3.5,0,0,1,629,59.51a4.5,4.5,0,0,1-1-3.12Zm1.43.17a3.58,3.58,0,0,0,.65,2.23,2.17,2.17,0,0,0,3.44,0,3.9,3.9,0,0,0,.64-2.39,3.53,3.53,0,0,0-.65-2.22,2.16,2.16,0,0,0-3.43,0A3.87,3.87,0,0,0,629.41,56.46Z"/><path class="cls-3" d="M644.74,58.57l1.6-6.37h1.43l-2.43,8.34h-1.16l-2-6.32-2,6.32H639l-2.42-8.34H638l1.64,6.24,1.94-6.24h1.15Z"/><path class="cls-3" d="M650.76,60.54h-1.42V48.7h1.42Z"/><path class="cls-3" d="M656.5,60.69a3.63,3.63,0,0,1-2.75-1.11,4.15,4.15,0,0,1-1.07-3v-.26a5,5,0,0,1,.48-2.22,3.57,3.57,0,0,1,1.32-1.52,3.31,3.31,0,0,1,1.85-.55,3.09,3.09,0,0,1,2.52,1.07,4.56,4.56,0,0,1,.91,3.06v.6h-5.65a3,3,0,0,0,.72,2,2.28,2.28,0,0,0,1.75.76,2.53,2.53,0,0,0,1.28-.31,3.26,3.26,0,0,0,.92-.82l.87.68A3.52,3.52,0,0,1,656.5,60.69Zm-.17-7.47a1.92,1.92,0,0,0-1.45.62,3.13,3.13,0,0,0-.73,1.76h4.18v-.1a2.77,2.77,0,0,0-.58-1.69A1.83,1.83,0,0,0,656.33,53.22Z"/><path class="cls-3" d="M661.06,56.3a4.87,4.87,0,0,1,.91-3.09,2.86,2.86,0,0,1,2.38-1.16,2.89,2.89,0,0,1,2.32,1V48.7h1.42V60.54h-1.31l-.07-.9a2.89,2.89,0,0,1-2.38,1A2.86,2.86,0,0,1,662,59.5a4.91,4.91,0,0,1-.91-3.09Zm1.42.16a3.71,3.71,0,0,0,.59,2.22,1.9,1.9,0,0,0,1.62.8,2.08,2.08,0,0,0,2-1.22V54.43a2.11,2.11,0,0,0-2-1.18,1.89,1.89,0,0,0-1.63.81A4.08,4.08,0,0,0,662.48,56.46Z"/><path class="cls-3" d="M670,56.3a4.89,4.89,0,0,1,.9-3.1,3.12,3.12,0,0,1,4.77-.08l.07-.92H677v8.14a3.42,3.42,0,0,1-1,2.55,3.55,3.55,0,0,1-2.58.93,4.21,4.21,0,0,1-1.76-.39,3,3,0,0,1-1.32-1l.74-.86a2.78,2.78,0,0,0,2.24,1.14,2.18,2.18,0,0,0,1.62-.59,2.23,2.23,0,0,0,.59-1.65V59.7a2.94,2.94,0,0,1-2.34,1,2.83,2.83,0,0,1-2.37-1.18A5.16,5.16,0,0,1,670,56.3Zm1.43.16a3.73,3.73,0,0,0,.58,2.22,1.87,1.87,0,0,0,1.61.8,2.12,2.12,0,0,0,2-1.22V54.45a2.13,2.13,0,0,0-2-1.2,1.91,1.91,0,0,0-1.63.81A4.09,4.09,0,0,0,671.4,56.46Z"/><path class="cls-3" d="M682.62,60.69a3.65,3.65,0,0,1-2.76-1.11,4.15,4.15,0,0,1-1.06-3v-.26a5,5,0,0,1,.47-2.22,3.71,3.71,0,0,1,1.32-1.52,3.34,3.34,0,0,1,1.85-.55A3.11,3.11,0,0,1,685,53.12a4.62,4.62,0,0,1,.9,3.06v.6h-5.65a3,3,0,0,0,.72,2,2.29,2.29,0,0,0,1.75.76,2.53,2.53,0,0,0,1.28-.31,3.26,3.26,0,0,0,.92-.82l.87.68A3.51,3.51,0,0,1,682.62,60.69Zm-.18-7.47a1.94,1.94,0,0,0-1.45.62,3.05,3.05,0,0,0-.72,1.76h4.17v-.1a2.71,2.71,0,0,0-.58-1.69A1.81,1.81,0,0,0,682.44,53.22Z"/><path class="cls-3" d="M698.81,58.57l1.6-6.37h1.42l-2.42,8.34h-1.16l-2-6.32-2,6.32H693.1l-2.42-8.34h1.41l1.65,6.24,1.94-6.24h1.15Z"/><path class="cls-3" d="M703.29,50a.87.87,0,0,1,.21-.59.95.95,0,0,1,1.26,0A.83.83,0,0,1,705,50a.81.81,0,0,1-.22.58,1,1,0,0,1-1.26,0A.84.84,0,0,1,703.29,50Zm1.54,10.55h-1.42V52.2h1.42Z"/><path class="cls-3" d="M709.05,50.18v2h1.55v1.1h-1.55v5.18a1.22,1.22,0,0,0,.2.75.88.88,0,0,0,.71.25,3.53,3.53,0,0,0,.68-.09v1.15a4.2,4.2,0,0,1-1.09.15,1.75,1.75,0,0,1-1.44-.58,2.43,2.43,0,0,1-.49-1.64V53.3H706.1V52.2h1.52v-2Z"/><path class="cls-3" d="M713.69,53.21a3,3,0,0,1,2.47-1.16c1.76,0,2.65,1,2.66,3v5.51H717.4V55a1.92,1.92,0,0,0-.41-1.33,1.65,1.65,0,0,0-1.26-.44,2.1,2.1,0,0,0-1.22.37,2.54,2.54,0,0,0-.82,1v5.94h-1.42V48.7h1.42Z"/><path class="cls-3" d="M730,59.71a3,3,0,0,1-2.44,1,2.6,2.6,0,0,1-2-.77,3.37,3.37,0,0,1-.71-2.3V52.2h1.43v5.39c0,1.26.51,1.89,1.54,1.89A2.12,2.12,0,0,0,730,58.26V52.2h1.43v8.34H730Z"/><path class="cls-3" d="M738.42,58.32a1,1,0,0,0-.44-.89,4,4,0,0,0-1.52-.55,7.12,7.12,0,0,1-1.71-.56,2.31,2.31,0,0,1-.94-.77,1.79,1.79,0,0,1-.31-1.06,2.17,2.17,0,0,1,.87-1.74,3.4,3.4,0,0,1,2.21-.7,3.45,3.45,0,0,1,2.3.73,2.33,2.33,0,0,1,.89,1.87h-1.44a1.28,1.28,0,0,0-.49-1,1.88,1.88,0,0,0-1.26-.42,1.91,1.91,0,0,0-1.21.34,1,1,0,0,0-.44.88.84.84,0,0,0,.41.78,5.14,5.14,0,0,0,1.47.5,7.77,7.77,0,0,1,1.73.57,2.51,2.51,0,0,1,1,.8,1.9,1.9,0,0,1,.32,1.13A2.13,2.13,0,0,1,739,60a3.76,3.76,0,0,1-2.32.67,4.27,4.27,0,0,1-1.77-.35,2.91,2.91,0,0,1-1.21-1,2.42,2.42,0,0,1-.43-1.38h1.42a1.49,1.49,0,0,0,.58,1.14,2.19,2.19,0,0,0,1.41.42,2.3,2.3,0,0,0,1.3-.33A1,1,0,0,0,738.42,58.32Z"/><path class="cls-3" d="M741.73,59.79a.89.89,0,0,1,.22-.62.86.86,0,0,1,.66-.24.9.9,0,0,1,.67.24.89.89,0,0,1,.22.62.83.83,0,0,1-.22.59.9.9,0,0,1-.67.24.86.86,0,0,1-.66-.24A.83.83,0,0,1,741.73,59.79Z"/><path class="cls-3" d="M408.82,81.34h-5.16v14h-3.47v-14h-5.08V78.53h13.71Z"/><path class="cls-3" d="M416.85,86a8,8,0,0,0-1.2-.1,2.44,2.44,0,0,0-2.49,1.29v8.18h-3.34V82.85H413l.09,1.49a3.11,3.11,0,0,1,2.78-1.72,3.49,3.49,0,0,1,1,.15Z"/><path class="cls-3" d="M423.12,90.63l2.32-7.78H429L424,97.3l-.28.66a3.81,3.81,0,0,1-3.7,2.45,5.09,5.09,0,0,1-1.47-.22V97.66h.5a2.77,2.77,0,0,0,1.42-.29,1.84,1.84,0,0,0,.73-1l.4-1-4.38-12.54h3.59Z"/><path class="cls-3" d="M446,91.89h-6.08l-1.16,3.47H435l6.26-16.83h3.22l6.29,16.83h-3.68Zm-5.14-2.81H445l-2.11-6.3Z"/><path class="cls-3" d="M456.26,91.28l2.32-8.43h3.49l-4.22,12.51h-3.19l-4.21-12.51h3.49Z"/><path class="cls-3" d="M470.61,95.36a3.91,3.91,0,0,1-.33-1.12,4,4,0,0,1-3.16,1.35,4.42,4.42,0,0,1-3-1.06,3.42,3.42,0,0,1-1.21-2.68,3.55,3.55,0,0,1,1.47-3.06,7.39,7.39,0,0,1,4.26-1.07h1.54V87a2,2,0,0,0-.45-1.38,1.72,1.72,0,0,0-1.4-.52,2,2,0,0,0-1.32.4,1.38,1.38,0,0,0-.48,1.11h-3.34a3.35,3.35,0,0,1,.67-2,4.44,4.44,0,0,1,1.89-1.45,7,7,0,0,1,2.75-.53,5.46,5.46,0,0,1,3.67,1.16,4.07,4.07,0,0,1,1.36,3.27v5.42a6,6,0,0,0,.5,2.69v.2ZM467.85,93a2.92,2.92,0,0,0,1.37-.33,2.2,2.2,0,0,0,.92-.89V89.67h-1.25q-2.5,0-2.67,1.74v.19a1.34,1.34,0,0,0,.44,1A1.69,1.69,0,0,0,467.85,93Z"/><path class="cls-3" d="M480.06,79.78v3.07h2.13V85.3h-2.13v6.25a1.53,1.53,0,0,0,.26,1,1.35,1.35,0,0,0,1,.3,5.63,5.63,0,0,0,1-.08v2.53a6.86,6.86,0,0,1-2,.3c-2.34,0-3.54-1.18-3.58-3.55V85.3h-1.83V82.85h1.83V79.78Z"/><path class="cls-3" d="M491.3,95.36a3.91,3.91,0,0,1-.33-1.12,4,4,0,0,1-3.16,1.35,4.42,4.42,0,0,1-3-1.06,3.42,3.42,0,0,1-1.21-2.68A3.55,3.55,0,0,1,485,88.79a7.35,7.35,0,0,1,4.26-1.07h1.54V87a2,2,0,0,0-.45-1.38,1.72,1.72,0,0,0-1.4-.52,2,2,0,0,0-1.32.4,1.38,1.38,0,0,0-.48,1.11h-3.34a3.35,3.35,0,0,1,.67-2,4.38,4.38,0,0,1,1.89-1.45,7,7,0,0,1,2.75-.53,5.47,5.47,0,0,1,3.67,1.16,4.07,4.07,0,0,1,1.36,3.27v5.42a5.9,5.9,0,0,0,.5,2.69v.2ZM488.54,93a2.85,2.85,0,0,0,1.36-.33,2.17,2.17,0,0,0,.93-.89V89.67h-1.25q-2.5,0-2.67,1.74v.19a1.34,1.34,0,0,0,.44,1A1.69,1.69,0,0,0,488.54,93Z"/><path class="cls-3" d="M496.23,89a7.4,7.4,0,0,1,.71-3.32A5.25,5.25,0,0,1,499,83.42a6,6,0,0,1,3.12-.8,5.69,5.69,0,0,1,4.13,1.55,6.2,6.2,0,0,1,1.79,4.21l0,.85a6.54,6.54,0,0,1-1.6,4.62,6.23,6.23,0,0,1-8.63,0,6.64,6.64,0,0,1-1.61-4.72Zm3.34.24a4.63,4.63,0,0,0,.67,2.72,2.4,2.4,0,0,0,3.81,0,5.12,5.12,0,0,0,.68-3,4.57,4.57,0,0,0-.68-2.7,2.21,2.21,0,0,0-1.92-1,2.16,2.16,0,0,0-1.89,1A5.18,5.18,0,0,0,499.57,89.23Z"/><path class="cls-3" d="M515.5,89a7.47,7.47,0,0,1,1.32-4.65,4.24,4.24,0,0,1,3.58-1.74,3.83,3.83,0,0,1,3,1.37V77.61h3.35V95.36h-3L523.59,94a3.92,3.92,0,0,1-3.21,1.56,4.24,4.24,0,0,1-3.54-1.74A7.78,7.78,0,0,1,515.5,89Zm3.34.25a4.92,4.92,0,0,0,.62,2.7,2,2,0,0,0,1.78.94,2.23,2.23,0,0,0,2.18-1.31V86.65a2.19,2.19,0,0,0-2.16-1.31Q518.85,85.34,518.84,89.26Z"/><path class="cls-3" d="M535.12,95.59a6.11,6.11,0,0,1-4.48-1.69,6,6,0,0,1-1.73-4.49v-.33a7.52,7.52,0,0,1,.73-3.37,5.25,5.25,0,0,1,2.06-2.28,5.77,5.77,0,0,1,3-.81,5.19,5.19,0,0,1,4,1.62,6.59,6.59,0,0,1,1.47,4.59v1.36h-8a3.14,3.14,0,0,0,1,2,3,3,0,0,0,2.07.74,3.6,3.6,0,0,0,3-1.4L540,93.34A4.89,4.89,0,0,1,538,95,6.6,6.6,0,0,1,535.12,95.59Zm-.38-10.27a2.1,2.1,0,0,0-1.62.67,3.53,3.53,0,0,0-.79,1.93H537v-.27a2.56,2.56,0,0,0-.6-1.73A2.18,2.18,0,0,0,534.74,85.32Z"/><path class="cls-3" d="M545.29,82.85l.1,1.4a4.43,4.43,0,0,1,3.6-1.63,3.33,3.33,0,0,1,3.31,1.91,4.3,4.3,0,0,1,3.76-1.91,3.73,3.73,0,0,1,3,1.19,5.46,5.46,0,0,1,1,3.56v8h-3.35v-8a2.37,2.37,0,0,0-.42-1.55,1.81,1.81,0,0,0-1.46-.49,2.08,2.08,0,0,0-2.08,1.43v8.59h-3.34v-8a2.35,2.35,0,0,0-.43-1.58,1.88,1.88,0,0,0-1.46-.48,2.15,2.15,0,0,0-2,1.18v8.84h-3.34V82.85Z"/><path class="cls-3" d="M562.13,89a7.53,7.53,0,0,1,.71-3.32,5.25,5.25,0,0,1,2.07-2.25,6,6,0,0,1,3.12-.8,5.73,5.73,0,0,1,4.14,1.55A6.24,6.24,0,0,1,574,88.38l0,.85a6.54,6.54,0,0,1-1.6,4.62,6.23,6.23,0,0,1-8.63,0,6.69,6.69,0,0,1-1.61-4.72Zm3.34.24a4.63,4.63,0,0,0,.67,2.72A2.4,2.4,0,0,0,570,92a5.12,5.12,0,0,0,.68-3,4.57,4.57,0,0,0-.68-2.7,2.21,2.21,0,0,0-1.92-1,2.17,2.17,0,0,0-1.89,1A5.18,5.18,0,0,0,565.47,89.23Z"/><path class="cls-3" d="M586.61,91.28l2.32-8.43h3.49L588.2,95.36H585l-4.22-12.51h3.49Z"/><path class="cls-3" d="M599.64,95.59a6.1,6.1,0,0,1-4.47-1.69,6,6,0,0,1-1.73-4.49v-.33a7.52,7.52,0,0,1,.73-3.37,5.25,5.25,0,0,1,2.06-2.28,5.74,5.74,0,0,1,3-.81,5.19,5.19,0,0,1,4,1.62,6.55,6.55,0,0,1,1.48,4.59v1.36h-8a3.16,3.16,0,0,0,1,2,3,3,0,0,0,2.06.74,3.61,3.61,0,0,0,3-1.4l1.64,1.84a5,5,0,0,1-2,1.65A6.68,6.68,0,0,1,599.64,95.59Zm-.38-10.27a2.08,2.08,0,0,0-1.61.67,3.46,3.46,0,0,0-.79,1.93h4.65v-.27a2.52,2.52,0,0,0-.61-1.73A2.16,2.16,0,0,0,599.26,85.32Z"/><path class="cls-3" d="M613.71,86a7.94,7.94,0,0,0-1.2-.1A2.45,2.45,0,0,0,610,87.18v8.18h-3.34V82.85h3.16l.09,1.49a3.11,3.11,0,0,1,2.79-1.72,3.53,3.53,0,0,1,1,.15Z"/><path class="cls-3" d="M622.09,91.9a1.06,1.06,0,0,0-.61-1,6.52,6.52,0,0,0-1.94-.63q-4.47-.94-4.47-3.79a3.41,3.41,0,0,1,1.39-2.78,5.52,5.52,0,0,1,3.61-1.12,6.08,6.08,0,0,1,3.81,1.12,3.54,3.54,0,0,1,1.42,2.92H622a1.61,1.61,0,0,0-.46-1.19,2,2,0,0,0-1.44-.47,2,2,0,0,0-1.31.38,1.21,1.21,0,0,0-.46,1,1,1,0,0,0,.52.89,5.19,5.19,0,0,0,1.78.59,14.82,14.82,0,0,1,2.1.56c1.76.65,2.65,1.77,2.65,3.36a3.26,3.26,0,0,1-1.47,2.77,6.3,6.3,0,0,1-3.79,1.06,6.65,6.65,0,0,1-2.79-.56,4.69,4.69,0,0,1-1.92-1.54,3.57,3.57,0,0,1-.69-2.11h3.17a1.75,1.75,0,0,0,.66,1.37,2.62,2.62,0,0,0,1.64.47,2.44,2.44,0,0,0,1.45-.36A1.14,1.14,0,0,0,622.09,91.9Z"/><path class="cls-3" d="M627.46,79.62a1.64,1.64,0,0,1,.51-1.24,2.18,2.18,0,0,1,2.73,0,1.76,1.76,0,0,1,0,2.49,2.15,2.15,0,0,1-2.71,0A1.63,1.63,0,0,1,627.46,79.62ZM631,95.36h-3.35V82.85H631Z"/><path class="cls-3" d="M633.24,89a7.4,7.4,0,0,1,.72-3.32A5.22,5.22,0,0,1,636,83.42a6,6,0,0,1,3.13-.8,5.7,5.7,0,0,1,4.13,1.55,6.24,6.24,0,0,1,1.79,4.21l0,.85a6.55,6.55,0,0,1-1.61,4.62,6.22,6.22,0,0,1-8.62,0,6.65,6.65,0,0,1-1.62-4.72Zm3.34.24a4.71,4.71,0,0,0,.67,2.72,2.41,2.41,0,0,0,3.82,0,5.2,5.2,0,0,0,.68-3,4.64,4.64,0,0,0-.68-2.7,2.23,2.23,0,0,0-1.92-1,2.18,2.18,0,0,0-1.9,1A5.26,5.26,0,0,0,636.58,89.23Z"/><path class="cls-3" d="M650.22,82.85l.1,1.45a4.38,4.38,0,0,1,3.6-1.68,3.64,3.64,0,0,1,3,1.17,5.4,5.4,0,0,1,1,3.49v8.08h-3.34v-8a2.15,2.15,0,0,0-.46-1.54,2.07,2.07,0,0,0-1.54-.48,2.29,2.29,0,0,0-2.11,1.2v8.82h-3.34V82.85Z"/><path class="cls-3" d="M667.21,95.36V85.3h-1.86V82.85h1.86V81.79a4.29,4.29,0,0,1,1.21-3.26,4.64,4.64,0,0,1,3.38-1.17,8.08,8.08,0,0,1,1.7.23l0,2.59a4.15,4.15,0,0,0-1-.1q-1.89,0-1.89,1.77v1h2.49V85.3h-2.49V95.36Z"/><path class="cls-3" d="M674.26,89a7.4,7.4,0,0,1,.72-3.32A5.22,5.22,0,0,1,677,83.42a6,6,0,0,1,3.13-.8,5.72,5.72,0,0,1,4.13,1.55,6.19,6.19,0,0,1,1.78,4.21l0,.85a6.55,6.55,0,0,1-1.61,4.62,5.58,5.58,0,0,1-4.31,1.74,5.65,5.65,0,0,1-4.32-1.73,6.69,6.69,0,0,1-1.61-4.72Zm3.34.24a4.63,4.63,0,0,0,.67,2.72,2.41,2.41,0,0,0,3.82,0,5.2,5.2,0,0,0,.68-3,4.64,4.64,0,0,0-.68-2.7,2.23,2.23,0,0,0-1.92-1,2.18,2.18,0,0,0-1.9,1A5.18,5.18,0,0,0,677.6,89.23Z"/><path class="cls-3" d="M695.19,86a7.84,7.84,0,0,0-1.2-.1,2.46,2.46,0,0,0-2.49,1.29v8.18h-3.34V82.85h3.16l.09,1.49a3.11,3.11,0,0,1,2.79-1.72,3.53,3.53,0,0,1,1,.15Z"/><path class="cls-3" d="M703.61,95.36V85.3h-1.87V82.85h1.87V81.79a4.32,4.32,0,0,1,1.2-3.26,4.68,4.68,0,0,1,3.38-1.17,8,8,0,0,1,1.7.23l0,2.59a4.29,4.29,0,0,0-1-.1c-1.25,0-1.88.59-1.88,1.77v1h2.48V85.3H707V95.36Z"/><path class="cls-3" d="M718.2,86a7.84,7.84,0,0,0-1.2-.1,2.44,2.44,0,0,0-2.48,1.29v8.18h-3.34V82.85h3.15l.09,1.49a3.11,3.11,0,0,1,2.79-1.72,3.49,3.49,0,0,1,1,.15Z"/><path class="cls-3" d="M725.57,95.59a6.11,6.11,0,0,1-4.48-1.69,6,6,0,0,1-1.73-4.49v-.33a7.52,7.52,0,0,1,.73-3.37,5.25,5.25,0,0,1,2.06-2.28,5.77,5.77,0,0,1,3.05-.81,5.2,5.2,0,0,1,4,1.62,6.59,6.59,0,0,1,1.47,4.59v1.36h-8a3.1,3.1,0,0,0,1,2,3,3,0,0,0,2.07.74,3.6,3.6,0,0,0,3-1.4l1.64,1.84a5,5,0,0,1-2,1.65A6.63,6.63,0,0,1,725.57,95.59Zm-.39-10.27a2.08,2.08,0,0,0-1.61.67,3.53,3.53,0,0,0-.79,1.93h4.65v-.27a2.56,2.56,0,0,0-.6-1.73A2.2,2.2,0,0,0,725.18,85.32Z"/><path class="cls-3" d="M738.36,95.59a6.13,6.13,0,0,1-4.48-1.69,6,6,0,0,1-1.73-4.49v-.33a7.65,7.65,0,0,1,.73-3.37,5.31,5.31,0,0,1,2.06-2.28,5.77,5.77,0,0,1,3-.81,5.19,5.19,0,0,1,4,1.62,6.59,6.59,0,0,1,1.47,4.59v1.36h-8a3.11,3.11,0,0,0,1,2,3,3,0,0,0,2.06.74,3.62,3.62,0,0,0,3-1.4l1.64,1.84a4.92,4.92,0,0,1-2,1.65A6.6,6.6,0,0,1,738.36,95.59ZM738,85.32a2.08,2.08,0,0,0-1.61.67,3.47,3.47,0,0,0-.8,1.93h4.65v-.27a2.51,2.51,0,0,0-.6-1.73A2.18,2.18,0,0,0,738,85.32Z"/><g class="cls-4"><path class="cls-5" d="M-36.9,13.74l-5.14,0C-46.56-2.83-30.68-6.88-21.67-14c7-5.5,13-10,12.85-19.11C-.71-47.47-6.33-63.08-4.39-78c7.92-12.11,18.65-14.79,32-8.61a13.38,13.38,0,0,1,6,9.23C28.57-57.74,46.56-49.8,56.31-37.66a25.83,25.83,0,0,1,6,4.08,19.89,19.89,0,0,1,6.16,12.63c-.41,10.44-6.63,16-17.14,16.87-10,.82-15.09,5.59-15.92,14.9-2.61,8-9.9,11.09-16.73,14.72C12.07,26.72,5.8,29.67-1.18,29-14.1,26.06-28.39,26-36.9,13.74Z"/><path class="cls-6" d="M-21.1,53.57c.34-7,4.4-7.63,10.16-5.25,2.71-1.8,5.74-1.47,8.6-1.42a10.37,10.37,0,0,0,3.41-3.28,24.19,24.19,0,0,1,2.82-4.75c5-5.95,12.12-8.66,18.92-11.94C37.54,22.73,51.31,15,67.47,16a18.47,18.47,0,0,1,6,3.87c3,5,8.26,8,12.23,12.12A15,15,0,0,1,88,38.47a15.34,15.34,0,0,1-1.87,6.69,18.73,18.73,0,0,1-5.32,4.61c-6.32,2.55-13,4.62-16.85,10.71A57.35,57.35,0,0,1,57.4,68a132,132,0,0,1-10.57,8.25,25.89,25.89,0,0,1-6.06,2.68c-4,1.29-8.36,1.18-11.94,3.55-7.43,11.55,9.56,22.71.55,34.19-4.93,5.75-10.84,6.06-17.4,2.93C-4,107.34-10.41,88.37-23.4,73.91-28.74,68-27.81,59.77-21.1,53.57Z"/><path class="cls-7" d="M-21.1,53.57c1.08,4.78.44,11.84,3.54,14,17,11.64,21.5,31,33.21,45.8-4.74,7.19,9.35,13.82.71,21.15-5.82,3.61-11.84,1.11-17.81.59-15.14-11.22-36.16,4.45-50.66-9.89-3.78-8.47-13.11-15.33-8.52-26.25,2.34-5.66,13-8.91,8.44-16-16-24.86,6-24.49,20.62-29.33Z"/><path class="cls-8" d="M-10.61,33.79c.5-7.47,5.07-7.28,10.68-5.1,4-2.26,5.68.3,7.28,3.1A15.77,15.77,0,0,1,5.17,43.61c0,1.63,0,3.26,0,4.89C5,51.7,2.21,52.41-.09,53.59c-9.45,9-5.72-6.29-10.85-5.27Z"/><path class="cls-9" d="M-31.56,178.08c-5.37,7.87-11.44,13.1-21,5-11.27-9.12-9.28-20.19-3.23-30.35,3.94-6.6,8.27-12,3.21-19.47-3.53-5.81-3.5-9.94,5.22-10,2.31.92,6.3,3.08,6.7,2.59,14.92-18.2,27.53-4.57,40.6,2.42,6,6.53,14.83,11.53,13.08,22.17-3,6.8-8.94,8.77-16,8.81C-30.42,149.18-30.42,149.18-31.56,178.08Z"/><path class="cls-10" d="M31.42,8.75c-3.48-5.4-12.5-6.46-12.74-15.91,12.87-8.76,35.28,6,44.24-14,13-4.21,24.74-4.72,31,10A17.61,17.61,0,0,1,93.41-4C89.3,4.67,78,5.64,72.89,13.36a13.81,13.81,0,0,1-6.24,2.78C58.3,19.07,51.42,12.5,43.44,13,38.84,13.09,34.47,12.56,31.42,8.75Z"/><path class="cls-11" d="M31.42,8.75,41.88,3.87C58.52,8.14,49.64,16,43.71,21.46c-5.16,4.74-13.48,6-17.91,12.25L5.17,43.61c-.12-3.33-12.65-6.69,0-10,1.82-6,3.77-12,10.47-14.91Z"/><path class="cls-12" d="M15.67,18.72,5.2,33.63.07,28.69c0-1.62.09-3.24.14-4.86Z"/><path class="cls-13" d="M26.19,68.52l15.74,5c10.88.82,17.73,8.65,26.29,13.49C73,92.6,80,90.28,86.1,91.28c5,1.67,6.93,5.35,7.49,10-1.58,7.29-2.79,14.55,2.23,21.26a36.15,36.15,0,0,1,1.07,6.61c1.73,10.23,4.29,20.52-2.47,30.13a24.51,24.51,0,0,1-4.52,5.29c-11.67,18.76-28.3,10.58-44.1,7.35-8.77-2.37-15.95-6.78-20.54-14.49-1.5-3.27-2.87-6.58-3-10.21a15.93,15.93,0,0,1,2-6.66c2.32-3.47,6.18-6,7.14-10.22-2.72-5.93-1.83-11.87-.36-17.83C29,97.87,18,84.14,26.19,68.52Z"/><path class="cls-14" d="M89.23-6.31C98.42-7.63,99.65-14,99.67-21.13c3.33-3.36,7.61-3.85,12.12-3.72a27.4,27.4,0,0,1,11.71,4.18c2.5,1.39,4.72,3.27,7.6,4.05,6.28-.16,12.33-2.26,18.67-1.71a17.86,17.86,0,0,1,13,4.69,10,10,0,0,1,2.12,6.27C160.59,2.3,149.3,3.57,142,9.68c-5.13,1.78-10.63,1.07-15.81,2.13C122,14,121.73,18.36,120,21.9c-3.42,6.81-9.6,9.9-16.9,11.51C94.73,35,88.24,28.06,80,28.87c-5.06.54-8.64-1.93-11.83-5.19,0-1.65,0-3.29,0-4.94q-2.82-1.62-1.89-3.27t1.86-1.65c0-1.7,0-3.4,0-5.1,3.28-10.29,14.2-6.51,21-10.26C89.19-3.13,89.19-4.72,89.23-6.31Z"/><path class="cls-15" d="M63,93.46c-8-5.71-18.09-9.43-21-19.94v0c3.39-3.44,10.44-3.42,10.53-10l5.22-5c15-10.08,23.2-1.7,30.19,10A16.75,16.75,0,0,1,88.29,76c-2.06,7.14-7.73,12-12.38,17.58C71.58,96.38,67.24,97.54,63,93.46Z"/><path class="cls-7" d="M26.19,68.52c16,11.54,1.3,32.75,15.71,44.78-5.23,3.51-10.47,3.76-15.74.08-.38-9.4-9.32-15.55-10.94-23.77C13.63,81.56,13.69,71.35,26.19,68.52Z"/><path class="cls-16" d="M68.15,13.82q0,2.46,0,4.92l-42.38,15C25.23,20.89,51.21,20.94,41.89,3.87c2.2-7.87,6-9.95,11.54-2.42C57.33,6.78,60.09,13.05,68.15,13.82Z"/><path class="cls-17" d="M26.16,113.38l15.74-.08c-10.43,6.65-.66,13.29,0,19.94-5,3.7-13.07,2.92-15.71,9.93l-.08.09c-3.59,3.07-7.42,3-11.39.75-2.26-3.8-2.34-7.44.92-10.81,3.29-6.62-17.56-13.25,0-19.87C19.14,117.39,22.64,117.43,26.16,113.38Z"/><path class="cls-18" d="M84,73.46c-5.66-9.88-14-15.55-26.28-14.91-1.39-15.66,12.18-12.3,21.06-14.91,5.7,4.5,13.52,2.81,19.69,6a15.75,15.75,0,0,1,5.16,4.91,15.91,15.91,0,0,1,1.32,10.48,17.47,17.47,0,0,1-3.57,6.33C96,75.6,90.33,77.2,84,73.46Z"/><path class="cls-18" d="M99.68,28.68l15.76-9.94c11.26-6.39,17.62-4.08,17.91,9a21.55,21.55,0,0,1-2.87,6.76C127,39.64,120.45,41,116,44.92c-5,3.52-6.63,12.93-16.28,8.66h0c-6.14-2.09-13.75-2.09-15.76-10,0-1.63,0-3.26,0-4.89C87.68,33.24,94.58,32.23,99.68,28.68Z"/><path class="cls-19" d="M99.68,28.68c-1.51,8.64-8.2,9.94-15.77,10,0-1.67,0-3.34,0-5-3.23-3.28-3-6.57-.05-9.88C91.33,18.92,94.14,27.79,99.68,28.68Z"/><path class="cls-18" d="M52.45,63.51c5,1.45,11.54,3.67,8,9.43-4.71,7.61-12.24-.1-18.51.56Z"/><path class="cls-18" d="M83.82,23.79c0,3.29,0,6.59.05,9.88-11.66,5.74-16,1.15-15.68-10Z"/><path class="cls-20" d="M83.92,43.57l15.76,10c-12.4,7-16.87-1.13-21-9.94C80.46,43.63,82.19,43.6,83.92,43.57Z"/><path class="cls-21" d="M48.24,51.93c-.15.08-2.39,2.23-4.46,2.09-1.73-.12-4.5-2.85-4.56-4.49s2.57-4.08,4.48-4.6C46.4,44.2,48.48,46,48.24,51.93Z"/><path class="cls-22" d="M-.09,53.59,5.16,48.5c3,.79,8.16,1.7,6.77,4.83C9,59.89,4,54.14-.09,53.59Z"/><path class="cls-23" d="M15.65,133.2v10a3.75,3.75,0,0,1,1.74,3.56c-.21,1.34-.51,2-.89,2a5,5,0,0,1-6.09-.54C4,142.94,1,136.06-.09,128.27Z"/><path class="cls-24" d="M89.22-1.54l-21,10.26C67.35-9.17,80.09-2,89.22-1.54Z"/><path class="cls-25" d="M84,73.46l15.73-4.95c26.17-2.43,19.57,16,20.94,29.45.16,14.64,13.8,17.05,23.45,23.11a17.61,17.61,0,0,1,4.06,6.4,30.4,30.4,0,0,1,.57,11.4c-1,5.4-3.87,9.43-9.48,11.38-16.7-7.22-34.49-12.3-50-22,0-1.66,0-3.32,0-5-3.19-7.3,1.19-13.78,2.47-20.6C95,93.5,86.57,89.83,82.09,84.29a5.39,5.39,0,0,1,1.77-5.72Z"/><path class="cls-26" d="M110.15,173.12c-6.56-8.41-23.49-.45-26.19-14.94l5.23,0c10.56-10.75,17.77-29.66,39-14.44,6.22,7.24,17.54,13.49,9,24.73C130.47,177.4,120.73,179.61,110.15,173.12Z"/><path class="cls-27" d="M126,148.26c-16.62-11.25-23.93,8.59-36.79,9.9,3.39-10,.5-19.91,0-29.87,19.8-2,37,1.45,47.25,19.92C133,151.08,129.48,151.16,126,148.26Z"/><path class="cls-28" d="M94.42,103.21c5.28,8.35-1.67,13.83-5.24,20.1-7.26-6.7-12-13.4.11-20C91,101,92.65,100.82,94.42,103.21Z"/><path class="cls-29" d="M63,93.46l10.57-4.8c3.56-2,6.48-.91,9.12,1.64.43,1,.85,2,1.27,3.07C77,101.81,70,110.09,63,93.46Z"/><path class="cls-30" d="M94.42,103.21c-1.71.07-3.42.1-5.13.1l-5.36-9.94,0,.07c-3-3.33-3.41-6.67,0-10C95.87,86,98.64,92.92,94.42,103.21Z"/><path class="cls-31" d="M26.2,143.17c1.48-8.66,8.2-9.86,15.71-9.93,1.61,2.45,12.9,5,1,7.24C37.58,141.47,31.57,140.75,26.2,143.17Z"/><path class="cls-32" d="M31.35,153l-15.54-5c-.06-1.63-.11-3.25-.15-4.88l10.46.1Q28.73,148.14,31.35,153Z"/><path class="cls-19" d="M125.92,28.76c4-10.44-3.62-9.86-10.48-10,5.39-3.78-15-16,5.39-14.87,6.88,6.22,13.77,6.52,20.67,0,5.33-6.7,13.76-7.53,21.26-10.12,13.92,1,8.61,9.21,6.77,16.14-5.81,6.36-9.48,14.23-15.59,20.43C144.22,36.05,134.77,37.05,125.92,28.76Z"/><path class="cls-33" d="M162.7,8.74c2.23-5,6.08-9.95.06-15,0-1.64,0-3.29,0-4.93-4.24-5-4.56-9.94-.08-14.94l5.28,0a6.06,6.06,0,0,1,7.54-.07c4.46,3.91,5.16,9.09,5.38,14.43S181-1.3,180,3.88A16.22,16.22,0,0,1,169.39,15C164.78,15.23,161.56,14.08,162.7,8.74Z"/><path class="cls-34" d="M141.5,3.9c-.43,4.19,4.6,11.35-1.94,11.9-7.77.66-16.91-1.77-18.73-11.94Z"/><path class="cls-35" d="M83.92,83.42q0,5,0,10L73.54,88.66c-7-13,5-8.46,10.32-10.09Z"/><path class="cls-36" d="M142,129.11c-.11-1.93-.21-3.87-.32-5.81-11.1-7.63-19.49-18.35-31.5-24.94,3.85-12.28,4.75-23.63-10.51-29.85,0-1.65,0-3.3,0-5,3.55-5.15,7.5-9.62,15-8.29a17.06,17.06,0,0,1,6.21,3.44c6.1,8,12.29,16,23.23,18.71,9.41,5,16.9,12.22,24.71,19.09,6.16,5.39,14.94,9.22,12.9,19.48a12,12,0,0,1-4.23,5.51c-8.83,2.18-18.42,2.62-25.19,9.71A12.23,12.23,0,0,1,142,129.11Z"/><path class="cls-25" d="M115.43,58.55l-15.76,5q0-5,0-10,5.26-7.48,10.54-15C121.51,33.83,129,34.7,127.5,49.05,125.37,54.38,121.64,57.89,115.43,58.55Z"/><path class="cls-18" d="M178.45,118.29c-1.21-8.83-8.82-11.58-15.79-14.93-3.29-15.51-13.31-25.12-29-29.74a15.46,15.46,0,0,1-6.32-8.42,19,19,0,0,1-.13-6.89c5.42-8.46,3.6-16.62-1.25-24.64,0-1.64,0-3.28,0-4.91,8.75.71,17.48-4.48,26.24-.07l3.63-.79c15.37-2.86,23.29,4,24.78,17.93,2.13,20.11,1.15,40.44,10.34,59.78C194.34,112.83,192.84,123.09,178.45,118.29Z"/><path class="cls-37" d="M125.93,33.67c6.29,7.43,32.09,11.14,5.27,24.87-7,0-8-5.66-10.45-10,4.07-10.55-3.83-9.66-10.53-9.92C114.43,34,120.11,33.66,125.93,33.67Z"/><path class="cls-38" d="M126,143.48l10.46,0,5.74-6.9c5.56-1.63,11.32-.83,17-.49a33.65,33.65,0,0,1,6.68,1.37c5.26,2.85,11.88,4.65,17.07,7.58,5.06,5.7,15,9.87,15.36,17a7.49,7.49,0,0,1-1.79,4.23c-16.72,5.68-1.76,15.05-7.26,22.06-2.59,3.8-7.24,6.46-13.26,8.36-6.14,1.19-12.32,2.39-18.84.92-9.28-2.38-8-10.07-17.66-12.28-9.24-1.34-18.12-3.06-24.32-7.73-22.32-4.25-9.15-11.87-5.06-18.63C117.38,154.51,148.72,158.65,126,143.48Z"/><path class="cls-27" d="M110.19,98.36c26.2-9.52,26.14,10.79,31.5,24.94C121.59,125.89,111.55,117.05,110.19,98.36Z"/><path class="cls-39" d="M156.89,143.05l-14.71-5.89c-.06-2.69-.11-5.38-.17-8l10,0a8.56,8.56,0,0,1,8.3,5.19C161.07,137.86,160.25,140.9,156.89,143.05Z"/><path class="cls-40" d="M162.7,8.74l5.14,5.16c2.19,12-.55,19.27-15.65,14.84l0,0C151.92,20.26,154,12.93,162.7,8.74Z"/><path class="cls-41" d="M152.19,28.74c9.31-1.07,12.22-8.21,15.65-14.84L173.63,3a18.55,18.55,0,0,1,10.18-4.45c9.51-.35,16.37,5.71,24.37,9S224.81,13.84,228,22.91c-.37,8.64-8.09,18.18,5.34,24.92,5.1,2.56,6.35,9.29,4.46,15.33-6.91,16.23-26.25.86-34.89,12.48-3.77,13,9.67,11.48,15.31,16.45,4.11,2.63,8.73,4.44,12.74,7.24a18.72,18.72,0,0,1,6.54,12.86c-9.6,22.89-39.41,43.57-59.16,41.06-7.17-.6-12.42-3.9-15.67-10-3.78-6.2,1.87-9.59,4.57-13.85a48.71,48.71,0,0,0,11.19-11v0c1.89-4.19-7-80.36-10.18-82.22C163.22,33.15,157.58,31.14,152.19,28.74Z"/><path class="cls-42" d="M173.92-10.06l9.44,4c3.37,3.2,3.58,6.49.29,9.87l-10-.77Z"/><path class="cls-41" d="M136.44,68.5c20.18,3.88,30.2,14.63,26.22,34.86l-21-19.91C135.81,79.77,130.15,76,136.44,68.5Z"/><path class="cls-27" d="M178.44,118.33c3.71,6.72,2.18,11.77-5.27,15-5.28,3.29-10.78-.62-16.12.42l-5-4.63C152.38,106.81,167.44,117.07,178.44,118.33Z"/><path class="cls-25" d="M136.44,68.5q2.63,7.47,5.24,15c-15.18,1-19.4-11-26.23-19.91,5.25-8.07,10.5-7.93,15.74,0Z"/><path class="cls-41" d="M131.19,63.54a16.52,16.52,0,0,0-15.74,0c0-1.66,0-3.32,0-5l5.32-10,10.45,10C131.2,60.21,131.2,61.87,131.19,63.54Z"/><path class="cls-43" d="M178.35,153.25l-1.23-4.83c25.11,3.74,26.36-30.45,50.44-28.76,1,.06,2.25-4.12,3.39-6.32,7-4.1,13.22,0,19.7,1.7,12.15,5,13.66,17.77,21.17,26.2,3.21,10.67,16.75,16.93,14.37,30a12.81,12.81,0,0,1-3.94,5.55,22.13,22.13,0,0,1-6.18,3c-9.47,1.14-14.8,9.26-23.06,12.5a24.49,24.49,0,0,1-10.38,1c-3.51-.4-6.73-1.68-10-2.8-12.78-4.29-26.87-4.94-38.51-12.4C187.26,170.75,180.1,163.54,178.35,153.25Z"/><path class="cls-44" d="M157.05,133.7c5.2-6.14,10.68-2.69,16.12-.42l-10.49,9.95-5.78-.18Q157,138.37,157.05,133.7Z"/><path class="cls-45" d="M231-21.11c12.89,1.69,23.84,5.67,26.21,19.85-.72,4.57-3.92,7.54-7.3,10.42-5.82,3.11-9.41,8.65-14.71,12.37a14.61,14.61,0,0,1-9.59,2.33L204.79,13.79c-1.33-5.95-1.33-11.48,5.13-15C231.24,5.76,222.35-16,231-21.11Z"/><path class="cls-46" d="M225.56,23.86,231,18.72c5.1-.3,10.11-.24,14.3,3.2,6,5.16,8.48,11.84,9.14,19.29.15,5.93,3.19,11.78.67,17.82a14.1,14.1,0,0,1-12.22,7.66c-1.25-.26-2.49-.54-3.74-.81l-2.92-2.36c-2.88-4.06-5-10.71-8.76-11.78C198.63,43.67,215.81,33.69,225.56,23.86Z"/><path class="cls-46" d="M194.25,73.5c-8.26-21.31,10.66-15.17,17-12.24,8.91,4.1,16.4,3.61,24.89,2.26l0,0c7.43,11.69,2.2,19.4-8.8,25.33C212.45,91.37,199.4,90.08,194.25,73.5Z"/><path class="cls-47" d="M246.8,118.43c-5.91,8.13-5.91,8.13-15.85-5.09q-3.22-5.31-6.46-10.62c-3.15-4-4.48-8.3-2-13.1a11.42,11.42,0,0,1,6-3.8c8.64-3.59,16.1-12.31,27.11-5.64,6.8,5.73,3.06,12.39,1.93,18.85C255.47,106.22,252.9,113.22,246.8,118.43Z"/><path class="cls-48" d="M209.92-1.25c0,5.54-.32,11-5.13,15-8.65-.31-14.14-6.59-21.14-10-.1-3.29-.19-6.58-.29-9.87l10.74-5C201.69-11.17,208.38-9.92,209.92-1.25Z"/><path class="cls-49" d="M194.25,73.5c9.31,6.67,19.27,11.51,31.47,10q2.78,1.48,1.92,3.09c-.57,1.08-1.16,1.63-1.76,1.63l-1,1.4c-2.6,3.94-4.82,8.28-10.55,8.88C202,94.21,185.22,93.2,194.25,73.5Z"/><path class="cls-50" d="M194.41,43.67c-1.75,1.75-3.42,4.62-4.69,4.47-4-.48-5-3.84-4.59-7.2.32-2.65,2.25-5,5.13-3.5C192.07,38.36,192.82,41.15,194.41,43.67Z"/><path class="cls-51" d="M214.34,98.48l10.55-8.89-.39,13.13Z"/><path class="cls-52" d="M309.69,8.75c-2,3.74-9.68,6.78-1.75,11.73,4.85,3,9.42,8.63,16.08,3.82,5.52-4,10.84-8.42,12-15.59,8.57.39,18.28-1.37,21,10-4,5.55-7.61,11.46-13,16C310.71,57.33,297.37,56.55,260.84,30c-1.73-5.07.12-9.16,3.84-12.71,6.8-3.37,8.9-7.77,3.25-13.87-1.64-3.14-2-6.29-.31-9.49q0-7.51,0-15c3.31-4.45,8-5.2,13.25-4.49,7.24,1.84,11.94,7.32,17.79,11.19C301.78-6.47,309.44-.43,309.69,8.75Z"/><path class="cls-53" d="M267.62-6.09l5.11,5c6.1,17.8-6,14-16.29,12.34-4.32-1.26-7.75-3.56-9.76-7.52l10.48-5Z"/><path class="cls-54" d="M246.8,118.43c-4.19-8.09-1.86-14.66,5.25-20.11a15.37,15.37,0,0,1,13.26-5.19c10.16,2.48,19.08,10.32,30.78,6.33,12-.63,23.09,2,24.62,14.89,1.1,9.28-8.33,10.49-16,11.43-13.85.75-23.29,9.53-33.57,16.77l-3.43.68C253.42,140.51,257,124.26,246.8,118.43Z"/><path class="cls-55" d="M278.18,173.12l5.39-.11c2.08-3.65,2.19-7.93,4-11.68,2-7.29,1.43-15.45,7.77-21.34a16.4,16.4,0,0,1,9.72-4.37,12,12,0,0,1,6.59,2.52c5.49,15.31,21.75,22.94,29.34,36.84,1.51,6.78-.28,12.62-5.45,17.52-8.44,6.06-17.45,7.8-27.26,3.16-10.13-5.58-21.77-8.54-31-15.77A5.82,5.82,0,0,1,278.18,173.12Z"/><path class="cls-56" d="M293.84,168.13,283.57,173c.2-12.56-25.79-12.56-15.88-29.78l0,0C291.19,137.58,293.72,151.72,293.84,168.13Z"/><path class="cls-57" d="M246.68,3.77l10.61.06a13,13,0,0,1,3.12,10.66c-3.8,7.74-9,13-19,9.25l-10.48-5C233.87,11.54,233.8,1.52,246.68,3.77Z"/><path class="cls-58" d="M294,108.36c-13.21,7.32-20.19-.2-26.25-9.91-4-3.69-9.89-6.28-8.34-13.14-1.34-10.71-28-2.59-18-21.72l10.34-5c5.69-.44,9.13-4.65,13.45-7.32,0-1.92,6.3-.14,2.54-3.61-1.32-1.22-4.75-.89-7-2.07-6.54-6.33-7.84-12.16,1.82-16.9C275.85,36.75,298,24,305.86,45.15l35.48-16.44c15.42,1.62,17.65,15.22,24.74,24.41a15.51,15.51,0,0,1-1.37,6.93c-11.87,4.53-20.88,11.67-23.81,24.19-4.21,3.18-6.44,7.71-8.82,12.19-4.61,5.44-11.94,9.67-17.31,5.49C302.75,92.57,299.73,103.14,294,108.36Z"/><path class="cls-59" d="M262.49,28.66a14.33,14.33,0,0,0-.08,14.9,11.42,11.42,0,0,1-6,3.75,11.58,11.58,0,0,1-9.76-3.82q-2.61-9.87-5.24-19.75l15.71-10c4.41,0,8.43.68,10.53,5Z"/><path class="cls-60" d="M241.38,63.59c-.18,13.46,20.31,7.3,21,19.92-1.74,2.37-3.48,2.47-5.2,0L225.88,88.2c-.1-1.57-.15-3.15-.16-4.72,6.33-5.3,9.47-12.11,10.49-19.93Z"/><path class="cls-61" d="M246.67,43.49l10.34.36c7.41,2.47,8.76,8.77,10.42,14.87-5.34,9.7-10.56,8.12-15.71-.16Q249.2,51,246.67,43.49Z"/><path class="cls-62" d="M257.21,83.48c1.74,0,3.47,0,5.2,0q2.64,7.47,5.29,14.94l-15.65-.13C247.48,91.41,253.5,87.81,257.21,83.48Z"/><path class="cls-63" d="M267.67,18.72l-10.53-5,.15-9.88c6.66,2.66,13.55,6,15.44-4.89,12.64.9,6.95,15.77,16.25,19.46.56.22.33,5.29-.93,6.08C279.16,30,275.45,17.78,267.67,18.72Z"/><path class="cls-64" d="M294,108.36c-4.09-6,14.64-9.91,1.77-16.83-3.42-1.84-2.07-4.11.29-5.44,4.22-2.37,9.27-2.34,11.48,1.91,5.93,11.45,14.15,10.28,23.68,5.08A12.63,12.63,0,0,1,338,90.35c15,1.6,22.06,9.77,18.57,23.48-2.55,10,3.71,19.43.15,29.1-3.47,8.57-10.54,13.7-18.78,17.69-11.08.21-20.93-.84-17-15.36.65-1.1.36-2.06-1.28-2.62-4-.37-6.77-2.73-9.9-4.41h-5.27c-20.31,5.19-11.1-7-9.64-14.69a28.34,28.34,0,0,1,4.39-5.22c5.23-1.25,15.69,2.32,14.79-3.7C312.59,105.15,302.62,105.19,294,108.36Z"/><path class="cls-65" d="M299.21,118.32v5c-1.94,6.66-12.43,13.29-.08,20-5.58,7.55,4,18-5.29,24.84-3.69-13-11.95-21.77-26.12-24.93C271,126.67,284.28,121.57,299.21,118.32Z"/><path class="cls-66" d="M336,158.13c3.33,5,14.26,10,0,14.94-16.82-6.14-28.81-15.56-26.25-34.84,5-4.1,9.91.29,14.87.13,3.24-.64,4.75,1.24,5.88,3.66C322.12,150.52,326.54,155.09,336,158.13Z"/><path class="cls-54" d="M299.13,143.29c-18.3-6.74-14.41-13.39.08-20,10.1,2.34-7.82,13.54,5.25,14.95Z"/><path class="cls-67" d="M336,83.4c5.88-11,3.87-29.4,26.14-24.89,8.41,6.77,6.05,14.52,2.27,22.41-3.31,6.52-8.32,11-16.17,11.94a21.22,21.22,0,0,1-11.9-2.8Q332.84,86.9,336,83.4Z"/><path class="cls-52" d="M267.43,58.72,257,43.84l5.4-.28c9.73-5,19.08-5.8,28.16,2.6C287.08,57.19,275.49,55.19,267.43,58.72Z"/><path class="cls-68" d="M336,83.4l.37,5.1c1.45,1.77,1.27,3.28-.82,4.47-1.46,0-2.92.09-4.38.11-3.08-5-14.39-7.88-7.27-15.35C328.22,73.17,331.8,81.42,336,83.4Z"/><path class="cls-69" d="M357,78.44c10.2-.92,16.27-7.06,21-14.93,3.15-3.61,5.89-7.63,10.51-9.84,14,2.58,28.19,5.53,36.74-10,17.09.82,20.62,18.73,34,24.27a16.66,16.66,0,0,1,2.41,10.61c-1.75,7.8-6.11,13.67-13.86,17-4.95,3.24-21.32-7.18-13.88,11.52,2.88,7.21-4.05,13.29-13,14.48-10.25-4.66-5.1,5.44-8.14,7.7-4.76,6.43-11.48,7-18.82,5.77-8-1-15.9,4.63-23.93.3-5.64-3.49-8.37-8.59-9.16-14.76,8.34-15.95-10.8-20.92-14.34-32.12Z"/><path class="cls-70" d="M372.78,133.29c7.08-.94,9.54-6.1,12.18-11.46,1.81-3.69,5.1-8,9.76-4.62,4.18,3,.27,7.38-1,11.07.32,5.53,3.12,10.94.9,16.59a24,24,0,0,1-6,8.27l-5.4,5c-6.43,1.63-14,1.57-15.75,9.94h0l-10.52,5q-2.62,5-5.24,0c2.2-9.95,7.55-19.91,0-29.86.41-10.9-9.56-20.29-2.45-32.78,6.06-10.64-9.18-11.41-13.7-17.48.2-1.51.47-3,.81-4.48l10.11,0c10.7,7.62,38.21,4.63,21,29.89C361.11,125.92,365,130.21,372.78,133.29Z"/><path class="cls-71" d="M330.48,142l-5.88-3.66c-.77-3.9-3.22-8.29,1.53-11.1,1.36-.8,5.2.12,6.37,1.46C336.72,133.54,333.16,137.83,330.48,142Z"/><path class="cls-72" d="M372.78,133.29c-11.42,6.94-13.75-4.09-15.4-9-2.4-7.17,5.77-5.08,10.08-5.92Q370.12,125.81,372.78,133.29Z"/></g><path class="cls-73" d="M199.06,0H10.46A10.46,10.46,0,0,0,0,10.46V136.79a10.46,10.46,0,0,0,10.46,10.46H384.38c-4.16-15.17-25.58-87.08-96.76-125.14C252.35,3.26,218.76.15,199.06,0Z"/><path class="cls-74" d="M302.77,22.11c-37-18.85-72.34-22-93-22.11h-10C219.4.15,253,3.26,288.27,22.11c71.17,38.06,92.6,110,96.75,125.14H404.4C400,132.08,377.53,60.17,302.77,22.11Z"/><circle class="cls-75" cx="109.22" cy="73.78" r="35.86"/><circle class="cls-76" cx="107.53" cy="72.03" r="30.75"/><circle class="cls-77" cx="92.59" cy="56.35" r="4.3"/><circle class="cls-78" cx="151.95" cy="60.99" r="3.59"/><polyline class="cls-79" points="236.36 78.13 185.35 78.13 174.6 60.99 159.91 60.99"/><path class="cls-3" d="M190.24,62.74l.47-.05.75,0,.88,0,.8,0a5.58,5.58,0,0,1,2.28.4,3.56,3.56,0,0,1,1.43,1.1,4.33,4.33,0,0,1,.74,1.66,9.73,9.73,0,0,1,.2,2.08,9.42,9.42,0,0,1-.2,2,4.67,4.67,0,0,1-.75,1.75,4,4,0,0,1-1.5,1.23,5.58,5.58,0,0,1-2.45.46h-.61l-.75,0-.74,0-.55-.06Zm3,1.66-.55,0-.4,0v7l.18,0h.24l.25,0h.19a2.6,2.6,0,0,0,1.37-.31,2,2,0,0,0,.76-.84,3.61,3.61,0,0,0,.33-1.17,11.5,11.5,0,0,0,.07-1.31,9.64,9.64,0,0,0-.07-1.17,3.16,3.16,0,0,0-.31-1.11,2.07,2.07,0,0,0-.73-.83A2.45,2.45,0,0,0,193.22,64.4Z"/><path class="cls-3" d="M207,72.32a2.57,2.57,0,0,1-.5.35,4.3,4.3,0,0,1-.71.32,5.35,5.35,0,0,1-.9.24,5.64,5.64,0,0,1-1,.09,5,5,0,0,1-1.7-.27,3.49,3.49,0,0,1-1.27-.78,3.57,3.57,0,0,1-.79-1.23,4.6,4.6,0,0,1-.27-1.63,4.33,4.33,0,0,1,.31-1.72,3.38,3.38,0,0,1,2.12-2,5,5,0,0,1,1.57-.25,4.8,4.8,0,0,1,1.16.15,3.3,3.3,0,0,1,1.11.51,3,3,0,0,1,.82,1,3.35,3.35,0,0,1,.32,1.54,6.92,6.92,0,0,1-.15,1.38h-5.34a1.72,1.72,0,0,0,.2.8,1.7,1.7,0,0,0,.49.54,2.32,2.32,0,0,0,.7.3,3.72,3.72,0,0,0,.84.1,4.3,4.3,0,0,0,1.46-.21,3.3,3.3,0,0,0,.92-.5ZM203.84,67a2.48,2.48,0,0,0-.73.11,2,2,0,0,0-.61.31,1.58,1.58,0,0,0-.45.51,1.51,1.51,0,0,0-.21.68h3.64a1.61,1.61,0,0,0-.4-1.17A1.64,1.64,0,0,0,203.84,67Z"/><path class="cls-3" d="M212.33,73.11V68.58a3.45,3.45,0,0,0-.06-.72,1.17,1.17,0,0,0-.16-.43.42.42,0,0,0-.23-.21,1,1,0,0,0-.29,0,.74.74,0,0,0-.47.16.82.82,0,0,0-.29.42v5.36h-1.78V65.7h1.41l.21.82h0a1.92,1.92,0,0,1,.65-.71,2,2,0,0,1,1.94,0,1.23,1.23,0,0,1,.61.83,1.73,1.73,0,0,1,.68-.8,2,2,0,0,1,1-.27,2.25,2.25,0,0,1,.71.11,1.27,1.27,0,0,1,.56.39,1.9,1.9,0,0,1,.36.77,4.67,4.67,0,0,1,.13,1.23v5.07h-1.78V68.37a1.51,1.51,0,0,0-.21-.93.66.66,0,0,0-.53-.27.85.85,0,0,0-.46.12.63.63,0,0,0-.26.41v5.41Z"/><path class="cls-3" d="M218.91,69.41a4.48,4.48,0,0,1,.28-1.66,3.17,3.17,0,0,1,.8-1.23,3.38,3.38,0,0,1,1.23-.77,4.81,4.81,0,0,1,1.61-.26,4.6,4.6,0,0,1,1.67.29,3.26,3.26,0,0,1,1.23.79,3.34,3.34,0,0,1,.77,1.24,4.75,4.75,0,0,1,.26,1.6,4.55,4.55,0,0,1-.29,1.66,3.3,3.3,0,0,1-.79,1.22,3.51,3.51,0,0,1-1.24.77,4.81,4.81,0,0,1-1.61.26,4.6,4.6,0,0,1-1.67-.29,3.34,3.34,0,0,1-1.23-.79,3.38,3.38,0,0,1-.77-1.23A4.84,4.84,0,0,1,218.91,69.41Zm2,0a2.92,2.92,0,0,0,.13.9,2.08,2.08,0,0,0,.39.72,1.81,1.81,0,0,0,.61.49,1.86,1.86,0,0,0,.81.17,1.91,1.91,0,0,0,1.4-.55,2.39,2.39,0,0,0,.54-1.73,2.61,2.61,0,0,0-.5-1.66,1.75,1.75,0,0,0-1.44-.63,2.39,2.39,0,0,0-.77.13,1.41,1.41,0,0,0-.61.41,1.9,1.9,0,0,0-.41.71A3.17,3.17,0,0,0,220.89,69.41Z"/><path class="cls-80" d="M256.37,68.08a10.19,10.19,0,1,1-7.27,17.83,10.05,10.05,0,0,1-2.67-3.71"/><path class="cls-80" d="M253.76,92.72A14.66,14.66,0,1,1,270.45,78.2"/><path class="cls-81" d="M41.75,38.1C44.52,34,59.91,39.29,80.44,50.49a11.62,11.62,0,0,0-1.25,1.19c-11.9-6.4-20.17-9.46-21.5-7.51-2.36,3.48,18.13,21.52,45.78,40.3s52,31.19,54.34,27.71c1.39-2-5.13-9.12-16.34-18.42.2-.54.4-1.07.62-1.61,18.85,15.5,30.07,28.43,27.23,32.61-4.11,6-36-8.45-71.22-32.38S37.65,44.15,41.75,38.1Z"/><path class="cls-78" d="M260.71,77.73l-7.19-4.61a.48.48,0,0,0-.74.4v9.22a.48.48,0,0,0,.74.41l7.19-4.61A.49.49,0,0,0,260.71,77.73Z"/></svg>